<svg width="255" height="55" viewBox="0 0 255 55" fill="none" xmlns="http://www.w3.org/2000/svg">
<path d="M119.523 51.4176C119.132 51.4176 118.802 51.2055 118.802 50.8405V50.8289C118.802 50.4668 119.104 50.2316 119.644 50.2316C119.931 50.2322 120.217 50.2735 120.492 50.3543V50.6342C120.492 51.0915 120.06 51.4147 119.527 51.4147L119.523 51.4176ZM119.444 51.7552C119.645 51.7614 119.844 51.7197 120.025 51.6333C120.207 51.547 120.365 51.4186 120.486 51.2589V51.5215C120.486 51.5485 120.491 51.5754 120.501 51.6004C120.512 51.6254 120.527 51.648 120.547 51.6668C120.566 51.6856 120.589 51.7002 120.615 51.7097C120.64 51.7192 120.667 51.7234 120.694 51.722C120.722 51.7224 120.749 51.7172 120.775 51.7066C120.8 51.696 120.824 51.6803 120.843 51.6604C120.862 51.6406 120.877 51.617 120.887 51.5911C120.897 51.5652 120.901 51.5376 120.9 51.5099V49.9301C120.91 49.777 120.889 49.6235 120.838 49.4787C120.787 49.334 120.708 49.2009 120.605 49.0876C120.393 48.8755 120.08 48.7702 119.673 48.7702C119.348 48.767 119.027 48.8334 118.73 48.9649C118.696 48.9804 118.666 49.0055 118.645 49.0372C118.625 49.0689 118.614 49.1059 118.613 49.1438C118.615 49.1931 118.635 49.2398 118.671 49.2743C118.706 49.3087 118.753 49.3281 118.802 49.3285C118.829 49.3278 118.855 49.322 118.88 49.3112C119.115 49.2043 119.37 49.1492 119.628 49.1496C120.169 49.1496 120.494 49.4165 120.494 49.9359V50.0369C120.206 49.9523 119.907 49.9109 119.607 49.9142C118.877 49.9142 118.375 50.2374 118.375 50.8463V50.8564C118.375 51.4479 118.916 51.7552 119.451 51.7552H119.444ZM115.814 48.346C115.882 48.2017 115.943 48.1498 116.071 48.1498C116.261 48.1498 116.567 48.3734 116.818 48.3734C117.069 48.3734 117.197 48.245 117.31 47.9218C117.317 47.8924 117.323 47.8625 117.326 47.8324C117.323 47.7959 117.307 47.7617 117.28 47.7368C117.253 47.7119 117.218 47.6981 117.181 47.6982C117.153 47.7007 117.126 47.7109 117.104 47.7277C117.081 47.7445 117.064 47.7672 117.053 47.7934C116.985 47.9377 116.925 47.9882 116.796 47.9882C116.606 47.9882 116.3 47.766 116.049 47.766C115.799 47.766 115.67 47.893 115.558 48.2176C115.55 48.2468 115.544 48.2768 115.542 48.307C115.544 48.3435 115.561 48.3777 115.588 48.4026C115.614 48.4275 115.65 48.4413 115.686 48.4412C115.714 48.4398 115.742 48.4299 115.765 48.413C115.787 48.3961 115.805 48.3727 115.814 48.346ZM115.157 51.5041C115.157 51.5329 115.162 51.5614 115.173 51.588C115.183 51.6146 115.2 51.6387 115.22 51.6591C115.24 51.6794 115.264 51.6954 115.291 51.7062C115.317 51.717 115.346 51.7224 115.375 51.722C115.403 51.7222 115.431 51.7167 115.457 51.7057C115.484 51.6948 115.507 51.6786 115.527 51.6583C115.547 51.6379 115.562 51.6138 115.573 51.5873C115.583 51.5608 115.588 51.5325 115.587 51.5041V50.0426C115.587 49.5002 115.954 49.1381 116.452 49.1381C116.949 49.1381 117.249 49.4728 117.249 50.0037V51.5041C117.249 51.5615 117.272 51.6166 117.313 51.6572C117.353 51.6978 117.408 51.7206 117.465 51.7206C117.523 51.7206 117.578 51.6978 117.618 51.6572C117.659 51.6166 117.682 51.5615 117.682 51.5041V49.9027C117.682 49.216 117.275 48.7485 116.577 48.7485C116.377 48.7426 116.179 48.7921 116.005 48.8916C115.831 48.9912 115.687 49.1369 115.591 49.3126V48.9995C115.591 48.9708 115.586 48.9423 115.575 48.9157C115.564 48.8891 115.548 48.8649 115.528 48.8446C115.508 48.8243 115.484 48.8083 115.457 48.7975C115.43 48.7867 115.402 48.7813 115.373 48.7817C115.316 48.7832 115.263 48.8068 115.223 48.8475C115.183 48.8882 115.161 48.9428 115.161 48.9995L115.157 51.5041ZM112.858 51.4176C112.468 51.4176 112.137 51.2055 112.137 50.8405V50.8289C112.137 50.4668 112.439 50.2316 112.98 50.2316C113.267 50.2322 113.552 50.2735 113.827 50.3543V50.6342C113.827 51.0915 113.395 51.4147 112.863 51.4147L112.858 51.4176ZM112.779 51.7552C112.98 51.7614 113.179 51.7197 113.36 51.6333C113.542 51.547 113.7 51.4186 113.822 51.2589V51.5215C113.821 51.5484 113.826 51.5751 113.837 51.6C113.847 51.6249 113.862 51.6475 113.881 51.6663C113.901 51.685 113.924 51.6997 113.949 51.7093C113.974 51.7188 114.001 51.7232 114.028 51.722C114.056 51.7224 114.083 51.7172 114.109 51.7066C114.134 51.696 114.157 51.6803 114.177 51.6604C114.196 51.6406 114.211 51.617 114.221 51.5911C114.231 51.5652 114.235 51.5376 114.234 51.5099V49.9301C114.244 49.777 114.223 49.6234 114.172 49.4786C114.122 49.3338 114.042 49.2008 113.938 49.0876C113.726 48.8755 113.415 48.7702 113.007 48.7702C112.683 48.7671 112.362 48.8335 112.065 48.9649C112.031 48.9804 112.001 49.0055 111.981 49.0372C111.96 49.0689 111.949 49.1059 111.949 49.1438C111.95 49.1931 111.971 49.2398 112.006 49.2743C112.041 49.3087 112.088 49.3281 112.137 49.3285C112.164 49.3278 112.191 49.322 112.215 49.3112C112.45 49.2041 112.705 49.149 112.964 49.1496C113.504 49.1496 113.829 49.4165 113.829 49.9359V50.0369C113.541 49.9523 113.242 49.9109 112.942 49.9142C112.212 49.9142 111.709 50.2374 111.709 50.8463V50.8564C111.709 51.4479 112.251 51.7552 112.786 51.7552H112.779ZM109.679 51.37C109.537 51.3661 109.397 51.334 109.268 51.2757C109.138 51.2174 109.022 51.1339 108.925 51.0302C108.828 50.9265 108.752 50.8045 108.703 50.6714C108.653 50.5383 108.631 50.3967 108.636 50.2547V50.2432C108.632 50.1017 108.655 49.9606 108.705 49.8281C108.754 49.6955 108.83 49.5742 108.927 49.4709C109.024 49.3677 109.14 49.2846 109.269 49.2265C109.398 49.1684 109.537 49.1364 109.679 49.1323C110.227 49.1323 110.688 49.5651 110.688 50.249V50.2634C110.688 50.9617 110.231 51.3743 109.679 51.3743V51.37ZM108.224 52.4015C108.224 52.4302 108.229 52.4587 108.24 52.4854C108.25 52.512 108.267 52.5361 108.287 52.5564C108.307 52.5767 108.331 52.5928 108.358 52.6036C108.384 52.6144 108.413 52.6198 108.442 52.6194C108.47 52.6196 108.498 52.6141 108.524 52.6031C108.551 52.5922 108.574 52.576 108.594 52.5557C108.614 52.5353 108.629 52.5112 108.64 52.4847C108.65 52.4582 108.655 52.4299 108.654 52.4015V51.1463C108.77 51.3342 108.933 51.4891 109.126 51.5965C109.32 51.7038 109.537 51.7599 109.758 51.7595C110.455 51.7595 111.135 51.2012 111.135 50.2591V50.2475C111.135 49.2982 110.449 48.7514 109.758 48.7514C109.228 48.7514 108.893 49.0472 108.654 49.3934V49.0024C108.654 48.945 108.631 48.89 108.59 48.8494C108.55 48.8088 108.495 48.786 108.437 48.786C108.38 48.786 108.325 48.8088 108.284 48.8494C108.244 48.89 108.221 48.945 108.221 49.0024L108.224 52.4015ZM106.391 51.7494C106.968 51.7494 107.418 51.432 107.418 50.8838V50.8722C107.418 50.3528 106.938 50.1797 106.492 50.047C106.107 49.9287 105.749 49.8234 105.749 49.5492V49.542C105.749 49.3011 105.967 49.1222 106.308 49.1222C106.573 49.1311 106.833 49.2081 107.06 49.3458C107.09 49.3607 107.122 49.3686 107.155 49.3689C107.18 49.3693 107.204 49.3648 107.227 49.3557C107.25 49.3466 107.271 49.3332 107.289 49.316C107.306 49.2989 107.321 49.2784 107.33 49.2558C107.34 49.2332 107.345 49.2088 107.346 49.1842C107.345 49.1476 107.335 49.1118 107.316 49.0804C107.298 49.049 107.271 49.0231 107.239 49.0053C106.956 48.8513 106.641 48.7673 106.319 48.7601C105.742 48.7601 105.337 49.089 105.337 49.5853V49.5968C105.337 50.1278 105.839 50.2836 106.292 50.412C106.671 50.5173 107.013 50.6298 107.013 50.9198V50.9314C107.013 51.2098 106.762 51.3887 106.416 51.3887C106.086 51.3815 105.767 51.2743 105.5 51.0814C105.47 51.0592 105.433 51.0475 105.395 51.0482C105.37 51.0479 105.346 51.0523 105.323 51.0614C105.3 51.0705 105.279 51.084 105.261 51.1011C105.244 51.1183 105.23 51.1387 105.22 51.1613C105.21 51.184 105.205 51.2083 105.204 51.2329C105.205 51.2632 105.212 51.2931 105.226 51.3201C105.24 51.3472 105.259 51.3707 105.284 51.3887C105.609 51.617 105.994 51.7426 106.391 51.7494ZM101.99 51.6946H104.442C104.469 51.6969 104.498 51.6935 104.524 51.6845C104.55 51.6754 104.575 51.661 104.595 51.6421C104.616 51.6231 104.632 51.6001 104.644 51.5745C104.655 51.5489 104.661 51.5213 104.661 51.4933C104.661 51.4654 104.655 51.4377 104.644 51.4121C104.632 51.3865 104.616 51.3635 104.595 51.3446C104.575 51.3257 104.55 51.3112 104.524 51.3022C104.498 51.2931 104.469 51.2897 104.442 51.2921H102.209V49.9243H104.162C104.188 49.9245 104.214 49.9195 104.239 49.9095C104.263 49.8995 104.285 49.8847 104.304 49.866C104.323 49.8474 104.337 49.8252 104.347 49.8008C104.357 49.7764 104.363 49.7502 104.362 49.7238C104.362 49.6709 104.34 49.6203 104.303 49.5828C104.265 49.5454 104.215 49.524 104.162 49.5233H102.209V48.1887H104.413C104.466 48.1887 104.517 48.1676 104.555 48.13C104.592 48.0924 104.613 48.0414 104.613 47.9882C104.613 47.935 104.592 47.884 104.555 47.8464C104.517 47.8088 104.466 47.7876 104.413 47.7876H101.987C101.929 47.7892 101.874 47.8134 101.834 47.8552C101.793 47.8971 101.771 47.9531 101.771 48.0113V51.4738C101.771 51.532 101.793 51.5881 101.834 51.6299C101.874 51.6717 101.929 51.696 101.987 51.6975L101.99 51.6946ZM97.7394 51.4176C97.3486 51.4176 97.0184 51.2055 97.0184 50.8405V50.8289C97.0184 50.4668 97.3197 50.2316 97.8605 50.2316C98.1475 50.2322 98.4329 50.2735 98.7084 50.3543V50.6342C98.7084 51.0915 98.2758 51.4147 97.7437 51.4147L97.7394 51.4176ZM97.66 51.7552C97.8608 51.7614 98.0601 51.7197 98.2414 51.6333C98.4227 51.547 98.5808 51.4186 98.7026 51.2589V51.5215C98.7022 51.5485 98.7073 51.5754 98.7177 51.6004C98.728 51.6254 98.7434 51.648 98.7629 51.6668C98.7824 51.6856 98.8055 51.7002 98.8308 51.7097C98.8562 51.7192 98.8832 51.7234 98.9102 51.722C98.9379 51.7224 98.9654 51.7172 98.991 51.7066C99.0166 51.696 99.0397 51.6803 99.059 51.6604C99.0783 51.6406 99.0934 51.617 99.1033 51.5911C99.1131 51.5652 99.1176 51.5376 99.1164 51.5099V49.9301C99.1272 49.7775 99.1072 49.6243 99.0577 49.4796C99.0081 49.3348 98.93 49.2015 98.828 49.0876C98.6161 48.8755 98.3032 48.7702 97.8965 48.7702C97.5719 48.767 97.2503 48.8334 96.9535 48.9649C96.9189 48.9804 96.8895 49.0055 96.8688 49.0372C96.8481 49.0689 96.837 49.1059 96.8367 49.1438C96.8382 49.1931 96.8587 49.2398 96.8939 49.2743C96.9291 49.3087 96.9763 49.3281 97.0256 49.3285C97.0524 49.3278 97.0789 49.322 97.1034 49.3112C97.3385 49.2043 97.5937 49.1492 97.8518 49.1496C98.3926 49.1496 98.7098 49.4165 98.7098 49.9359V50.0369C98.4219 49.9523 98.123 49.9109 97.823 49.9142C97.0934 49.9142 96.5915 50.2374 96.5915 50.8463V50.8564C96.5915 51.4479 97.1323 51.7552 97.6673 51.7552H97.66ZM94.6896 51.5041C94.6896 51.5615 94.7124 51.6166 94.7529 51.6572C94.7935 51.6978 94.8485 51.7206 94.9059 51.7206C94.9632 51.7206 95.0183 51.6978 95.0588 51.6572C95.0994 51.6166 95.1222 51.5615 95.1222 51.5041V50.5216C95.1222 49.6906 95.5807 49.2722 96.1316 49.2044C96.1847 49.199 96.2338 49.1737 96.2691 49.1335C96.3044 49.0934 96.3233 49.0414 96.3219 48.988C96.3235 48.9595 96.3192 48.9309 96.3092 48.9041C96.2992 48.8773 96.2837 48.8529 96.2638 48.8325C96.2438 48.812 96.2199 48.7959 96.1934 48.7851C96.1669 48.7744 96.1385 48.7693 96.1099 48.7702C95.748 48.7702 95.3284 49.0587 95.1164 49.5406V48.9981C95.117 48.9695 95.1118 48.941 95.1012 48.9144C95.0905 48.8878 95.0746 48.8636 95.0545 48.8433C95.0343 48.8229 95.0102 48.8069 94.9837 48.7961C94.9572 48.7852 94.9288 48.7799 94.9001 48.7803C94.8433 48.7814 94.7891 48.8049 94.7495 48.8457C94.7098 48.8864 94.6878 48.9412 94.6882 48.9981L94.6896 51.5041ZM92.3897 51.4176C91.9989 51.4176 91.6687 51.2055 91.6687 50.8405V50.8289C91.6687 50.4668 91.97 50.2316 92.5108 50.2316C92.7978 50.2322 93.0832 50.2735 93.3587 50.3543V50.6342C93.3587 51.0915 92.9261 51.4147 92.394 51.4147L92.3897 51.4176ZM92.3103 51.7552C92.511 51.7614 92.7103 51.7197 92.8917 51.6333C93.073 51.547 93.2311 51.4186 93.3529 51.2589V51.5215C93.3525 51.5484 93.3576 51.5751 93.3678 51.6C93.3781 51.6249 93.3934 51.6475 93.4127 51.6663C93.432 51.685 93.455 51.6997 93.4801 51.7093C93.5053 51.7188 93.5322 51.7232 93.5591 51.722C93.5868 51.7224 93.6143 51.7172 93.6398 51.7066C93.6654 51.696 93.6886 51.6803 93.7079 51.6604C93.7272 51.6406 93.7423 51.617 93.7521 51.5911C93.762 51.5652 93.7665 51.5376 93.7653 51.5099V49.9301C93.7764 49.7775 93.7565 49.6242 93.707 49.4794C93.6574 49.3346 93.5792 49.2013 93.4769 49.0876C93.2649 48.8755 92.9535 48.7702 92.5454 48.7702C92.2212 48.7671 91.9002 48.8335 91.6038 48.9649C91.569 48.9802 91.5393 49.0052 91.5183 49.0369C91.4973 49.0687 91.4859 49.1058 91.4855 49.1438C91.487 49.1933 91.5077 49.2403 91.5433 49.2748C91.5788 49.3092 91.6264 49.3285 91.6759 49.3285C91.7027 49.3277 91.7291 49.3218 91.7537 49.3112C91.9882 49.2043 92.243 49.1492 92.5007 49.1496C93.0429 49.1496 93.3659 49.4165 93.3659 49.9359V50.0369C93.078 49.9523 92.7791 49.9109 92.4791 49.9142C91.748 49.9142 91.2462 50.2374 91.2462 50.8463V50.8564C91.2462 51.4479 91.7869 51.7552 92.3233 51.7552H92.3103ZM89.2159 51.37C89.074 51.3661 88.9342 51.334 88.8048 51.2757C88.6754 51.2174 88.5588 51.1339 88.4618 51.0302C88.3648 50.9265 88.2894 50.8045 88.2399 50.6714C88.1904 50.5383 88.1677 50.3967 88.1733 50.2547V50.2432C88.1685 50.1017 88.1917 49.9606 88.2416 49.8281C88.2914 49.6955 88.367 49.5742 88.4638 49.4709C88.5607 49.3677 88.677 49.2846 88.8061 49.2265C88.9351 49.1684 89.0744 49.1364 89.2159 49.1323C89.7624 49.1323 90.2253 49.5651 90.2253 50.249V50.2634C90.2253 50.9617 89.7682 51.3743 89.2159 51.3743V51.37ZM87.7609 52.4015C87.7605 52.4302 87.7659 52.4587 87.7767 52.4854C87.7875 52.512 87.8035 52.5361 87.8238 52.5564C87.8441 52.5767 87.8683 52.5928 87.8949 52.6036C87.9215 52.6144 87.95 52.6198 87.9787 52.6194C88.007 52.6196 88.0352 52.6141 88.0614 52.6031C88.0876 52.5922 88.1113 52.576 88.1311 52.5557C88.1509 52.5353 88.1664 52.5112 88.1766 52.4847C88.1868 52.4582 88.1916 52.4299 88.1906 52.4015V51.1463C88.3072 51.334 88.4697 51.4888 88.6627 51.5961C88.8557 51.7034 89.0729 51.7596 89.2937 51.7595C89.9917 51.7595 90.6723 51.2012 90.6723 50.2591V50.2475C90.6723 49.2982 89.9859 48.7514 89.2937 48.7514C88.7645 48.7514 88.4286 49.0472 88.1906 49.3934V49.0024C88.1906 48.945 88.1678 48.89 88.1273 48.8494C88.0867 48.8088 88.0317 48.786 87.9743 48.786C87.917 48.786 87.862 48.8088 87.8214 48.8494C87.7808 48.89 87.758 48.945 87.758 49.0024L87.7609 52.4015ZM84.6593 51.5085C84.6589 51.5372 84.6642 51.5657 84.675 51.5923C84.6858 51.6189 84.7019 51.6431 84.7222 51.6634C84.7425 51.6837 84.7666 51.6997 84.7932 51.7105C84.8198 51.7213 84.8483 51.7267 84.877 51.7263C84.9054 51.7265 84.9335 51.721 84.9597 51.7101C84.9859 51.6991 85.0096 51.683 85.0294 51.6626C85.0492 51.6423 85.0647 51.6181 85.0749 51.5916C85.0852 51.5651 85.0899 51.5369 85.089 51.5085V47.8107C85.089 47.7533 85.0662 47.6983 85.0256 47.6577C84.9851 47.6171 84.93 47.5943 84.8727 47.5943C84.8153 47.5943 84.7603 47.6171 84.7197 47.6577C84.6792 47.6983 84.6564 47.7533 84.6564 47.8107L84.6593 51.5085ZM82.3103 51.4176C81.921 51.4176 81.5893 51.2055 81.5893 50.8405V50.8289C81.5893 50.4668 81.8892 50.2316 82.4314 50.2316C82.7184 50.2323 83.0038 50.2736 83.2793 50.3543V50.6342C83.2793 51.0915 82.8467 51.4147 82.3132 51.4147L82.3103 51.4176ZM82.2295 51.7552C82.4304 51.7613 82.6299 51.7195 82.8114 51.6332C82.993 51.5469 83.1514 51.4186 83.2735 51.2589V51.5215C83.2731 51.5484 83.2782 51.5751 83.2885 51.6C83.2988 51.6249 83.314 51.6475 83.3334 51.6663C83.3527 51.685 83.3756 51.6997 83.4008 51.7093C83.426 51.7188 83.4528 51.7232 83.4797 51.722C83.5074 51.7224 83.5349 51.7172 83.5605 51.7066C83.5861 51.696 83.6092 51.6803 83.6285 51.6604C83.6478 51.6406 83.6629 51.617 83.6728 51.5911C83.6826 51.5652 83.6871 51.5376 83.6859 51.5099V49.9301C83.6967 49.7775 83.6767 49.6243 83.6271 49.4796C83.5776 49.3348 83.4995 49.2015 83.3975 49.0876C83.1856 48.8755 82.8727 48.7702 82.466 48.7702C82.1414 48.7672 81.8199 48.8336 81.523 48.9649C81.4885 48.9806 81.4592 49.0057 81.4385 49.0374C81.4179 49.0691 81.4066 49.106 81.4062 49.1438C81.4077 49.1933 81.4284 49.2403 81.4639 49.2748C81.4995 49.3092 81.547 49.3285 81.5965 49.3285C81.6233 49.3275 81.6497 49.3217 81.6744 49.3112C81.9089 49.2043 82.1636 49.1492 82.4213 49.1496C82.9621 49.1496 83.2865 49.4165 83.2865 49.9359V50.0369C82.9986 49.9523 82.6997 49.9109 82.3997 49.9142C81.6686 49.9142 81.1668 50.2374 81.1668 50.8463V50.8564C81.1668 51.4479 81.7075 51.7552 82.2425 51.7552H82.2295ZM80.0954 51.7436C80.2405 51.7464 80.3847 51.7199 80.5194 51.6657C80.5546 51.654 80.5854 51.6316 80.6074 51.6016C80.6293 51.5717 80.6414 51.5356 80.6419 51.4984C80.6416 51.4499 80.6221 51.4035 80.5879 51.3692C80.5536 51.3349 80.5072 51.3155 80.4588 51.3151C80.373 51.3374 80.285 51.3505 80.1964 51.3541C79.908 51.3541 79.7104 51.2257 79.7104 50.8737V49.1885H80.4588C80.5098 49.1889 80.5589 49.1691 80.5954 49.1335C80.6318 49.0978 80.6527 49.0491 80.6535 48.9981C80.6516 48.9476 80.6303 48.8997 80.5941 48.8645C80.5578 48.8293 80.5093 48.8094 80.4588 48.8091H79.7003V48.1281C79.6996 48.0708 79.6766 48.0161 79.6362 47.9754C79.5959 47.9348 79.5413 47.9114 79.484 47.9103C79.4557 47.9103 79.4277 47.9159 79.4016 47.927C79.3755 47.938 79.3518 47.9541 79.3321 47.9744C79.3123 47.9947 79.2968 48.0188 79.2865 48.0452C79.2762 48.0716 79.2713 48.0998 79.2721 48.1281V48.8091H79.037C78.987 48.8095 78.9392 48.8295 78.9039 48.8649C78.8685 48.9002 78.8485 48.9481 78.8481 48.9981C78.8492 49.048 78.8694 49.0956 78.9046 49.1311C78.9397 49.1665 78.9871 49.1871 79.037 49.1885H79.2721V50.9299C79.2721 51.5157 79.6225 51.7436 80.0853 51.7436H80.0954ZM77.696 51.5041C77.6956 51.5329 77.701 51.5614 77.7118 51.588C77.7226 51.6146 77.7386 51.6387 77.7589 51.6591C77.7792 51.6794 77.8033 51.6954 77.8299 51.7062C77.8565 51.717 77.885 51.7224 77.9137 51.722C77.9424 51.7226 77.9708 51.7174 77.9973 51.7066C78.0239 51.6958 78.0479 51.6797 78.068 51.6594C78.0881 51.639 78.1039 51.6147 78.1143 51.588C78.1247 51.5613 78.1296 51.5328 78.1286 51.5041V48.9981C78.129 48.9694 78.1236 48.9409 78.1128 48.9143C78.102 48.8877 78.086 48.8635 78.0657 48.8432C78.0454 48.8229 78.0212 48.8069 77.9946 48.796C77.968 48.7852 77.9395 48.7799 77.9108 48.7803C77.8541 48.7818 77.8002 48.8054 77.7606 48.8461C77.721 48.8868 77.6989 48.9413 77.6989 48.9981L77.696 51.5041ZM77.6571 47.9766C77.6578 48.0084 77.6649 48.0397 77.678 48.0687C77.6912 48.0976 77.71 48.1236 77.7335 48.145C77.7569 48.1665 77.7845 48.1829 77.8145 48.1934C77.8445 48.2039 77.8763 48.2082 77.908 48.206C77.94 48.2086 77.9723 48.2046 78.0028 48.1943C78.0333 48.1841 78.0613 48.1677 78.0853 48.1463C78.1093 48.1248 78.1287 48.0987 78.1423 48.0696C78.156 48.0404 78.1636 48.0088 78.1646 47.9766V47.9045C78.164 47.8723 78.1567 47.8405 78.1432 47.8112C78.1297 47.7819 78.1103 47.7557 78.0861 47.7343C78.062 47.7129 78.0338 47.6967 78.0031 47.6868C77.9724 47.6769 77.94 47.6734 77.908 47.6766C77.8763 47.674 77.8444 47.6779 77.8144 47.6882C77.7843 47.6984 77.7566 47.7147 77.7331 47.7361C77.7096 47.7575 77.6907 47.7835 77.6776 47.8124C77.6645 47.8414 77.6575 47.8727 77.6571 47.9045V47.9766ZM75.2259 51.0915C75.0953 51.0946 74.9654 51.0714 74.8439 51.0234C74.7224 50.9753 74.6118 50.9033 74.5186 50.8117C74.4254 50.7201 74.3515 50.6107 74.3014 50.49C74.2512 50.3693 74.2258 50.2397 74.2266 50.109V50.0975C74.2243 49.9669 74.2488 49.8372 74.2986 49.7164C74.3483 49.5956 74.4223 49.4864 74.516 49.3954C74.6097 49.3044 74.721 49.2336 74.8431 49.1873C74.9652 49.1411 75.0955 49.1204 75.2259 49.1265C75.7724 49.1265 76.2843 49.5117 76.2843 50.1032V50.1191C76.2843 50.6962 75.7724 51.0958 75.2259 51.0958V51.0915ZM75.2259 52.6021C75.6844 52.6021 76.0694 52.4737 76.3247 52.2169C76.4518 52.0803 76.5501 51.9194 76.6135 51.7438C76.6769 51.5683 76.7043 51.3818 76.6938 51.1954V49.0024C76.6938 48.9447 76.6709 48.8892 76.63 48.8484C76.5892 48.8075 76.5338 48.7846 76.4761 48.7846C76.4478 48.7848 76.4199 48.7906 76.3938 48.8017C76.3678 48.8127 76.3443 48.8289 76.3246 48.8492C76.3048 48.8694 76.2893 48.8934 76.279 48.9197C76.2686 48.946 76.2635 48.9742 76.2641 49.0024V49.3328C76.0978 49.0952 75.8602 48.9167 75.5857 48.8233C75.3112 48.7299 75.0141 48.7265 74.7375 48.8135C74.4609 48.9005 74.2192 49.0734 74.0475 49.3071C73.8758 49.5408 73.7829 49.8232 73.7825 50.1133V50.1191C73.7803 50.2975 73.814 50.4746 73.8814 50.6398C73.9488 50.8049 74.0487 50.9549 74.1751 51.0808C74.3014 51.2067 74.4518 51.306 74.6171 51.3728C74.7825 51.4395 74.9596 51.4724 75.1379 51.4695C75.362 51.4685 75.5824 51.4125 75.7798 51.3063C75.9771 51.2002 76.1454 51.0471 76.2699 50.8607V51.2012C76.2699 51.8764 75.8575 52.2284 75.2216 52.2284C74.8576 52.2291 74.5018 52.12 74.2007 51.9153C74.172 51.8977 74.1391 51.8882 74.1055 51.8879C74.0555 51.8899 74.008 51.9103 73.972 51.9452C73.9361 51.9801 73.9143 52.027 73.9108 52.0769C73.9106 52.1142 73.9209 52.1507 73.9405 52.1824C73.9602 52.214 73.9884 52.2395 74.0219 52.2558C74.383 52.4808 74.8005 52.5989 75.2259 52.5963V52.6021ZM72.5222 51.5027C72.5216 51.5313 72.5268 51.5598 72.5375 51.5864C72.5481 51.613 72.564 51.6372 72.5842 51.6575C72.6043 51.6779 72.6284 51.6939 72.6549 51.7047C72.6814 51.7156 72.7099 51.7209 72.7385 51.7206C72.7669 51.7208 72.795 51.7152 72.8212 51.7043C72.8474 51.6933 72.8711 51.6772 72.8909 51.6569C72.9107 51.6365 72.9262 51.6124 72.9364 51.5859C72.9467 51.5594 72.9514 51.5311 72.9505 51.5027V48.9981C72.9505 48.9407 72.9277 48.8857 72.8871 48.8451C72.8465 48.8045 72.7915 48.7817 72.7342 48.7817C72.6768 48.7817 72.6218 48.8045 72.5812 48.8451C72.5407 48.8857 72.5179 48.9407 72.5179 48.9981L72.5222 51.5027ZM72.4818 47.9752C72.4885 48.0379 72.5181 48.0959 72.565 48.138C72.6118 48.1801 72.6726 48.2035 72.7356 48.2035C72.7986 48.2035 72.8594 48.1801 72.9062 48.138C72.9531 48.0959 72.9827 48.0379 72.9894 47.9752V47.9031C72.9827 47.8404 72.9531 47.7824 72.9062 47.7403C72.8594 47.6981 72.7986 47.6748 72.7356 47.6748C72.6726 47.6748 72.6118 47.6981 72.565 47.7403C72.5181 47.7824 72.4885 47.8404 72.4818 47.9031V47.9752ZM68.6346 51.2848V48.1945H69.5489C70.5366 48.1945 71.1667 48.8755 71.1667 49.7411V49.7527C71.1667 50.6183 70.5366 51.2863 69.5489 51.2863L68.6346 51.2848ZM68.1934 51.4695C68.1934 51.5278 68.2161 51.5839 68.2568 51.6256C68.2975 51.6674 68.3529 51.6916 68.4111 51.6931H69.5489C70.776 51.6931 71.6239 50.839 71.6239 49.7397V49.7281C71.6239 48.6288 70.776 47.7862 69.5489 47.7862H68.4111C68.3529 47.7877 68.2975 47.8119 68.2568 47.8537C68.2161 47.8955 68.1934 47.9515 68.1934 48.0098V51.4695ZM64.1559 51.4132C63.7666 51.4132 63.4349 51.2012 63.4349 50.8362V50.8246C63.4349 50.4625 63.7348 50.2273 64.277 50.2273C64.564 50.228 64.8495 50.2693 65.1249 50.35V50.6298C65.1249 51.0872 64.6923 51.4104 64.1588 51.4104L64.1559 51.4132ZM64.0751 51.7508C64.276 51.757 64.4755 51.7152 64.6571 51.6289C64.8386 51.5426 64.997 51.4142 65.1191 51.2545V51.5171C65.1187 51.5441 65.1238 51.5708 65.1341 51.5957C65.1444 51.6206 65.1597 51.6432 65.179 51.6619C65.1983 51.6807 65.2212 51.6953 65.2464 51.7049C65.2716 51.7145 65.2984 51.7188 65.3253 51.7177C65.353 51.7181 65.3805 51.7128 65.4061 51.7023C65.4317 51.6917 65.4548 51.676 65.4741 51.6561C65.4935 51.6363 65.5085 51.6127 65.5184 51.5868C65.5282 51.5609 65.5327 51.5333 65.5315 51.5056V49.9301C65.5413 49.777 65.5202 49.6235 65.4694 49.4787C65.4186 49.334 65.3392 49.2009 65.2359 49.0876C65.024 48.8755 64.7111 48.7702 64.3044 48.7702C63.9798 48.7672 63.6583 48.8336 63.3614 48.9649C63.3269 48.9806 63.2976 49.0057 63.277 49.0374C63.2563 49.0691 63.245 49.106 63.2446 49.1438C63.2461 49.1933 63.2668 49.2403 63.3023 49.2748C63.3379 49.3092 63.3854 49.3285 63.4349 49.3285C63.4617 49.3275 63.4881 49.3217 63.5128 49.3112C63.7473 49.2043 64.002 49.1492 64.2597 49.1496C64.8005 49.1496 65.1249 49.4165 65.1249 49.9359V50.0369C64.837 49.9523 64.5381 49.9109 64.2381 49.9142C63.507 49.9142 63.0052 50.2374 63.0052 50.8463V50.8564C63.0052 51.4479 63.5459 51.7552 64.0809 51.7552L64.0751 51.7508ZM60.8076 49.1323C60.9492 49.1362 61.0885 49.1681 61.2177 49.2261C61.3468 49.2842 61.4632 49.3672 61.5601 49.4705C61.657 49.5738 61.7326 49.6952 61.7824 49.8278C61.8321 49.9605 61.8552 50.1016 61.8502 50.2432V50.2547C61.8554 50.3966 61.8325 50.538 61.7828 50.671C61.7332 50.8039 61.6577 50.9257 61.5608 51.0294C61.4639 51.133 61.3475 51.2165 61.2182 51.2749C61.089 51.3334 60.9494 51.3657 60.8076 51.37C60.2669 51.37 59.7983 50.9371 59.7983 50.2547V50.2432C59.7983 49.5449 60.2554 49.1323 60.8076 49.1323ZM62.2669 47.8107C62.2673 47.7821 62.2619 47.7536 62.2511 47.7271C62.2403 47.7006 62.2242 47.6765 62.2039 47.6563C62.1836 47.6361 62.1594 47.6202 62.1329 47.6096C62.1063 47.5989 62.0778 47.5937 62.0492 47.5943C62.0206 47.5935 61.9922 47.5986 61.9657 47.6092C61.9392 47.6198 61.9151 47.6357 61.8949 47.656C61.8748 47.6763 61.859 47.7005 61.8486 47.7271C61.8382 47.7537 61.8333 47.7822 61.8343 47.8107V49.3631C61.7178 49.175 61.5552 49.0198 61.3619 48.9122C61.1686 48.8046 60.951 48.7483 60.7298 48.7485C60.0376 48.7485 59.3527 49.3069 59.3527 50.2504V50.2634C59.3527 51.2127 60.0376 51.7595 60.7298 51.7595C61.259 51.7595 61.595 51.471 61.8343 51.1175V51.5085C61.8343 51.5659 61.8571 51.6209 61.8977 51.6615C61.9382 51.7021 61.9933 51.7249 62.0506 51.7249C62.108 51.7249 62.163 51.7021 62.2036 51.6615C62.2441 51.6209 62.2669 51.5659 62.2669 51.5085V47.8107ZM56.0809 51.5041C56.0805 51.5329 56.0859 51.5614 56.0967 51.588C56.1075 51.6146 56.1235 51.6387 56.1438 51.6591C56.1641 51.6794 56.1882 51.6954 56.2148 51.7062C56.2414 51.717 56.2699 51.7224 56.2986 51.722C56.327 51.7222 56.3551 51.7167 56.3813 51.7057C56.4075 51.6948 56.4312 51.6786 56.451 51.6583C56.4708 51.6379 56.4863 51.6138 56.4965 51.5873C56.5068 51.5608 56.5116 51.5325 56.5106 51.5041V50.0426C56.5106 49.5002 56.8783 49.1381 57.3758 49.1381C57.8732 49.1381 58.1732 49.4728 58.1732 50.0037V51.5041C58.1732 51.5615 58.196 51.6166 58.2365 51.6572C58.2771 51.6978 58.3321 51.7206 58.3895 51.7206C58.4468 51.7206 58.5018 51.6978 58.5424 51.6572C58.583 51.6166 58.6058 51.5615 58.6058 51.5041V49.9027C58.6058 49.216 58.1991 48.7485 57.5012 48.7485C57.3008 48.7426 57.1027 48.7921 56.9287 48.8916C56.7546 48.9912 56.6115 49.1369 56.5149 49.3126V48.9995C56.5153 48.9708 56.5099 48.9423 56.4991 48.9157C56.4883 48.8891 56.4723 48.8649 56.452 48.8446C56.4317 48.8243 56.4075 48.8083 56.381 48.7975C56.3544 48.7867 56.3259 48.7813 56.2972 48.7817C56.2404 48.7832 56.1865 48.8068 56.1469 48.8475C56.1073 48.8882 56.0852 48.9428 56.0852 48.9995L56.0809 51.5041ZM55.1277 51.3252C55.1456 51.309 55.1602 51.2895 55.1705 51.2677C55.1808 51.2458 55.1868 51.2222 55.188 51.1981C55.1892 51.174 55.1856 51.1499 55.1775 51.1271C55.1694 51.1044 55.1569 51.0835 55.1407 51.0655C55.1245 51.0476 55.105 51.0331 55.0832 51.0228C55.0614 51.0124 55.0377 51.0065 55.0136 51.0053C54.9895 51.0041 54.9654 51.0076 54.9427 51.0157C54.92 51.0239 54.899 51.0364 54.8812 51.0526C54.6591 51.2692 54.3607 51.3894 54.0506 51.3873C53.5372 51.3873 53.0974 51.0353 53.0412 50.4105H55.1277C55.1809 50.4105 55.2319 50.3894 55.2695 50.3518C55.307 50.3142 55.3282 50.2632 55.3282 50.21C55.3282 49.4454 54.8422 48.7471 53.99 48.7471C53.1926 48.7471 52.6057 49.4165 52.6057 50.249V50.2634C52.6057 51.1564 53.2532 51.7653 54.0477 51.7653C54.2492 51.7719 54.4498 51.7368 54.6371 51.6624C54.8244 51.5879 54.9944 51.4756 55.1364 51.3325L55.1277 51.3252ZM53.0383 50.0917C53.0946 49.529 53.4709 49.1106 53.9756 49.1106C54.5524 49.1106 54.8509 49.568 54.8956 50.0917H53.0383ZM50.3505 51.0915C50.2199 51.0946 50.09 51.0714 49.9685 51.0234C49.847 50.9753 49.7364 50.9033 49.6432 50.8117C49.55 50.7201 49.4761 50.6107 49.426 50.49C49.3758 50.3693 49.3504 50.2397 49.3512 50.109V50.0975C49.3489 49.9669 49.3734 49.8372 49.4232 49.7164C49.4729 49.5956 49.5469 49.4864 49.6406 49.3954C49.7343 49.3044 49.8456 49.2336 49.9677 49.1873C50.0898 49.1411 50.2201 49.1204 50.3505 49.1265C50.897 49.1265 51.4103 49.5117 51.4103 50.1032V50.1191C51.4103 50.6962 50.897 51.0958 50.3505 51.0958V51.0915ZM50.3505 52.6021C50.8076 52.6021 51.1926 52.4737 51.4493 52.2169C51.5759 52.08 51.6737 51.919 51.7369 51.7435C51.8 51.568 51.8273 51.3816 51.817 51.1954V49.0024C51.817 48.9447 51.794 48.8892 51.7532 48.8484C51.7124 48.8075 51.657 48.7846 51.5992 48.7846C51.571 48.7848 51.543 48.7906 51.517 48.8017C51.491 48.8127 51.4674 48.8289 51.4477 48.8492C51.428 48.8694 51.4125 48.8934 51.4021 48.9197C51.3917 48.946 51.3867 48.9742 51.3873 49.0024V49.3328C51.221 49.0952 50.9834 48.9167 50.7089 48.8233C50.4344 48.7299 50.1373 48.7265 49.8607 48.8135C49.5841 48.9005 49.3424 49.0734 49.1706 49.3071C48.9989 49.5408 48.9061 49.8232 48.9056 50.1133V50.1191C48.9035 50.2975 48.9371 50.4746 49.0046 50.6398C49.072 50.8049 49.1718 50.9549 49.2982 51.0808C49.4246 51.2067 49.5749 51.306 49.7403 51.3728C49.9057 51.4395 50.0828 51.4724 50.2611 51.4695C50.4852 51.4685 50.7056 51.4125 50.9029 51.3063C51.1003 51.2002 51.2686 51.0471 51.393 50.8607V51.2012C51.393 51.8764 50.9806 52.2284 50.3447 52.2284C49.9807 52.2288 49.625 52.1197 49.3238 51.9153C49.2953 51.8975 49.2623 51.888 49.2286 51.8879C49.1787 51.8902 49.1314 51.9107 49.0955 51.9455C49.0597 51.9803 49.0378 52.0271 49.034 52.0769C49.0337 52.1142 49.0441 52.1507 49.0637 52.1824C49.0833 52.214 49.1115 52.2395 49.145 52.2558C49.5067 52.4808 49.9246 52.5988 50.3505 52.5963V52.6021ZM45.6179 50.2634L46.5149 48.2666L47.4146 50.2634H45.6179ZM44.6244 51.5258C44.6244 51.579 44.6455 51.63 44.6831 51.6676C44.7207 51.7052 44.7717 51.7263 44.8249 51.7263C44.8717 51.7269 44.9175 51.7125 44.9556 51.6852C44.9937 51.658 45.0221 51.6193 45.0368 51.5748L45.4449 50.6659H47.5862L47.9914 51.5619C48.0075 51.6074 48.0368 51.6472 48.0756 51.676C48.1144 51.7048 48.1609 51.7213 48.2092 51.7234C48.237 51.7234 48.2646 51.718 48.2903 51.7073C48.316 51.6966 48.3394 51.681 48.3591 51.6613C48.3787 51.6416 48.3943 51.6182 48.405 51.5925C48.4157 51.5668 48.4211 51.5392 48.4211 51.5114C48.4195 51.4729 48.4102 51.4351 48.3937 51.4003L46.8076 47.9377C46.7894 47.88 46.753 47.8298 46.7039 47.7947C46.6547 47.7596 46.5954 47.7414 46.535 47.7429H46.512C46.4509 47.7417 46.3911 47.76 46.3411 47.795C46.2911 47.83 46.2535 47.8799 46.2337 47.9377L44.6475 51.4003C44.6282 51.4367 44.6183 51.4774 44.6187 51.5186" fill="white"/>
<path d="M126.996 40.3852C126.984 40.7383 126.9 41.0852 126.749 41.4047C126.598 41.7242 126.384 42.0096 126.119 42.2434C125.579 42.7452 124.865 43.0177 124.128 43.0037C123.504 43.0134 122.889 42.8645 122.339 42.5709C122.042 42.4221 121.781 42.2116 121.573 41.9536C121.365 41.6955 121.214 41.3959 121.132 41.0748C121.107 40.9836 121.101 40.8883 121.113 40.7947C121.126 40.701 121.157 40.6108 121.205 40.5294C121.252 40.4472 121.316 40.3755 121.392 40.3187C121.468 40.2619 121.554 40.2212 121.646 40.199C121.738 40.1742 121.833 40.1679 121.927 40.1805C122.021 40.1932 122.111 40.2245 122.193 40.2726C122.275 40.3201 122.346 40.3836 122.403 40.4595C122.46 40.5354 122.501 40.622 122.523 40.7141C122.568 40.8598 122.646 40.9934 122.75 41.1049C122.854 41.2163 122.982 41.3027 123.124 41.3576C123.442 41.4975 123.787 41.5664 124.134 41.5595C124.497 41.5676 124.85 41.4383 125.122 41.1974C125.254 41.0901 125.361 40.9558 125.437 40.8035C125.513 40.6513 125.556 40.4846 125.563 40.3145C125.566 40.2089 125.548 40.1037 125.509 40.0055C125.47 39.9074 125.41 39.8186 125.335 39.7446C125.081 39.4748 124.657 39.3363 124.06 39.3276H124.03C123.029 39.3113 122.264 39.0227 121.733 38.462C121.524 38.2501 121.362 37.9969 121.256 37.7187C121.151 37.4405 121.104 37.1433 121.12 36.8461C121.131 36.4921 121.215 36.1441 121.365 35.8236C121.516 35.503 121.73 35.2167 121.995 34.9821C122.534 34.4785 123.247 34.2043 123.984 34.2174C124.607 34.2078 125.223 34.3567 125.773 34.6503C126.069 34.7991 126.33 35.0096 126.539 35.2676C126.747 35.5257 126.897 35.8253 126.98 36.1464C127.005 36.2379 127.011 36.3335 126.997 36.4273C126.984 36.5211 126.951 36.6111 126.901 36.6917C126.856 36.7738 126.794 36.8456 126.719 36.9025C126.645 36.9594 126.559 37.0001 126.468 37.0221C126.377 37.0469 126.282 37.0532 126.188 37.0406C126.095 37.0279 126.005 36.9966 125.923 36.9486C125.841 36.9015 125.769 36.8381 125.712 36.7621C125.656 36.6862 125.615 36.5994 125.593 36.5071C125.546 36.3613 125.467 36.2278 125.362 36.1165C125.257 36.0051 125.129 35.9187 124.986 35.8636C124.672 35.7241 124.331 35.6551 123.987 35.6616C123.622 35.6539 123.268 35.7831 122.995 36.0238C122.865 36.1323 122.759 36.2668 122.685 36.4186C122.61 36.5705 122.569 36.7363 122.562 36.9053C122.558 37.0118 122.577 37.118 122.615 37.2173C122.654 37.3165 122.713 37.4067 122.788 37.4824C123.042 37.7478 123.467 37.8849 124.063 37.8935H124.093C125.094 37.9099 125.86 38.1984 126.392 38.7592C126.602 38.9719 126.765 39.2265 126.871 39.5063C126.976 39.7862 127.022 40.0851 127.005 40.3837L126.996 40.3852ZM119.362 41.5494C119.457 41.5477 119.551 41.5658 119.639 41.6026C119.726 41.6393 119.805 41.694 119.87 41.763C119.939 41.8297 119.993 41.9098 120.03 41.9983C120.067 42.0869 120.086 42.1821 120.085 42.278C120.081 42.4683 120.004 42.6499 119.87 42.7844C119.735 42.919 119.554 42.9961 119.364 42.9994H114.912C114.722 42.9968 114.54 42.9199 114.405 42.7852C114.271 42.6505 114.194 42.4685 114.191 42.278V34.9201C114.189 34.8241 114.207 34.7288 114.244 34.6401C114.281 34.5514 114.335 34.4714 114.405 34.405C114.47 34.3357 114.549 34.2808 114.637 34.2438C114.724 34.2068 114.819 34.1884 114.914 34.19L119.345 34.203C119.44 34.203 119.535 34.222 119.623 34.2587C119.711 34.2955 119.791 34.3495 119.858 34.4174C119.925 34.4853 119.978 34.5658 120.014 34.6543C120.049 34.7429 120.067 34.8376 120.066 34.933C120.063 35.1233 119.986 35.3049 119.851 35.4394C119.717 35.574 119.535 35.6511 119.345 35.6544H119.338L115.638 35.6429V37.8676H118.308C118.404 37.8659 118.498 37.8836 118.587 37.9195C118.675 37.9555 118.756 38.009 118.823 38.0768C118.891 38.1439 118.946 38.2241 118.983 38.3125C119.02 38.4009 119.039 38.4959 119.039 38.5918C119.039 38.6878 119.02 38.7827 118.983 38.8711C118.946 38.9596 118.891 39.0397 118.823 39.1069C118.755 39.1742 118.675 39.2273 118.587 39.263C118.498 39.2987 118.404 39.3162 118.308 39.3146H115.642V41.5408L119.362 41.5494ZM109.124 35.6443H107.296C107.105 35.6443 106.921 35.5683 106.786 35.433C106.651 35.2977 106.575 35.1143 106.575 34.9229C106.575 34.7316 106.651 34.5481 106.786 34.4129C106.921 34.2776 107.105 34.2016 107.296 34.2016H112.387C112.579 34.2016 112.762 34.2776 112.897 34.4129C113.033 34.5481 113.108 34.7316 113.108 34.9229C113.108 35.1143 113.033 35.2977 112.897 35.433C112.762 35.5683 112.579 35.6443 112.387 35.6443H110.562V42.2809C110.563 42.3769 110.545 42.4721 110.508 42.5607C110.471 42.6493 110.416 42.7294 110.347 42.796C110.212 42.9281 110.031 43.0022 109.842 43.0022C109.654 43.0022 109.472 42.9281 109.338 42.796C109.268 42.7296 109.213 42.6495 109.176 42.5609C109.14 42.4723 109.121 42.3769 109.123 42.2809L109.124 35.6443ZM103.959 42.7253H103.94L99.5352 37.0553V42.2838C99.5352 42.4751 99.4592 42.6586 99.324 42.7939C99.1888 42.9292 99.0054 43.0052 98.8142 43.0052C98.623 43.0052 98.4396 42.9292 98.3044 42.7939C98.1692 42.6586 98.0932 42.4751 98.0932 42.2838V34.9345C98.0912 34.7848 98.1389 34.6387 98.2288 34.519C98.3149 34.3945 98.4395 34.3017 98.5835 34.255C98.725 34.2016 98.8803 34.197 99.0247 34.242C99.1693 34.2852 99.2961 34.3737 99.3867 34.4945L103.796 40.1716V34.9345C103.794 34.84 103.812 34.7462 103.848 34.6588C103.884 34.5714 103.937 34.4924 104.005 34.4266C104.072 34.3575 104.152 34.3028 104.24 34.2658C104.329 34.2289 104.424 34.2104 104.52 34.2117C104.71 34.215 104.892 34.2921 105.026 34.4267C105.161 34.5612 105.238 34.7428 105.241 34.933V42.291C105.243 42.303 105.243 42.3151 105.241 42.3271V42.3588C105.242 42.3708 105.242 42.3829 105.241 42.3949C105.244 42.4072 105.244 42.42 105.241 42.4324V42.4627C105.239 42.4753 105.235 42.4875 105.23 42.4988C105.227 42.5099 105.222 42.5206 105.217 42.5305C105.217 42.5464 105.208 42.5579 105.205 42.5666L105.192 42.5969L105.173 42.6286L105.156 42.6647L105.137 42.6834L105.113 42.7195L105.094 42.744L105.069 42.7686C105.064 42.7776 105.057 42.7858 105.049 42.7931C105.04 42.8021 105.031 42.8103 105.02 42.8176C105.012 42.8273 105.001 42.8356 104.99 42.8421C105.002 42.8349 105 42.8421 104.99 42.8493C104.961 42.8715 104.931 42.8918 104.899 42.9099H104.892C104.86 42.9264 104.828 42.9409 104.794 42.9532H104.783C104.749 42.9665 104.714 42.9747 104.679 42.9778H104.66C104.626 42.9821 104.591 42.9845 104.556 42.985C104.529 42.9845 104.502 42.9821 104.475 42.9778C104.484 42.9778 104.475 42.9778 104.464 42.9778C104.443 42.9753 104.422 42.9714 104.402 42.9662C104.402 42.9662 104.402 42.9662 104.377 42.9662L104.328 42.9532C104.319 42.9512 104.311 42.9473 104.304 42.9417C104.286 42.9385 104.27 42.9321 104.255 42.9229C104.245 42.9219 104.236 42.9172 104.23 42.9099L104.188 42.8926C104.179 42.8876 104.171 42.8812 104.164 42.8739L104.121 42.8436L104.096 42.8248C104.077 42.8096 104.059 42.7932 104.041 42.7758L104.017 42.7498L104 42.7253H103.959ZM96.0096 41.5509C96.1046 41.5491 96.1989 41.5672 96.2866 41.604C96.3742 41.6407 96.4533 41.6954 96.5186 41.7644C96.5875 41.8311 96.6422 41.9112 96.6791 41.9998C96.716 42.0883 96.7345 42.1835 96.7335 42.2795C96.7301 42.4697 96.6531 42.6513 96.5186 42.7859C96.3841 42.9204 96.2026 42.9975 96.0125 43.0008H91.5669C91.3767 42.9975 91.1952 42.9204 91.0608 42.7859C90.9263 42.6513 90.8492 42.4697 90.8459 42.2795V34.9215C90.8441 34.8255 90.8623 34.7301 90.8993 34.6414C90.9363 34.5528 90.9912 34.4727 91.0607 34.4064C91.126 34.3371 91.2049 34.2822 91.2926 34.2452C91.3802 34.2082 91.4746 34.1899 91.5698 34.1915L95.9995 34.2045C96.0954 34.2032 96.1906 34.2216 96.2791 34.2586C96.3677 34.2956 96.4477 34.3503 96.5143 34.4194C96.5836 34.4874 96.6385 34.5687 96.6757 34.6585C96.7129 34.7482 96.7315 34.8446 96.7306 34.9417C96.7272 35.132 96.6502 35.3135 96.5157 35.4481C96.3812 35.5827 96.1998 35.6597 96.0096 35.6631L92.3081 35.6515V37.8762H94.98C95.1712 37.8762 95.3546 37.9522 95.4898 38.0875C95.625 38.2228 95.701 38.4063 95.701 38.5976C95.701 38.7889 95.625 38.9724 95.4898 39.1077C95.3546 39.243 95.1712 39.319 94.98 39.319H92.2951V41.5451L96.0096 41.5509ZM85.5928 42.9792C84.895 42.9819 84.2066 42.8179 83.5849 42.5008C82.9632 42.1838 82.426 41.7228 82.0182 41.1563C81.6103 40.5899 81.3434 39.9341 81.2397 39.2437C81.1361 38.5533 81.1986 37.848 81.4221 37.1866C81.6456 36.5252 82.0236 35.9267 82.5248 35.4409C83.0259 34.9551 83.6358 34.5959 84.3036 34.3933C84.9713 34.1907 85.6778 34.1505 86.3643 34.2759C87.0507 34.4014 87.6973 34.689 88.2503 35.1148C88.3283 35.1719 88.3941 35.2442 88.4436 35.3272C88.4931 35.4102 88.5255 35.5024 88.5387 35.5981C88.5521 35.6923 88.5462 35.7881 88.5215 35.8799C88.4967 35.9716 88.4535 36.0574 88.3945 36.132C88.277 36.2815 88.1058 36.3792 87.9173 36.4046C87.7289 36.4299 87.538 36.3807 87.3852 36.2676C86.9427 35.9269 86.4123 35.7197 85.8563 35.6702C85.3002 35.6207 84.7416 35.731 84.246 35.9882C83.7505 36.2454 83.3385 36.6387 83.0587 37.122C82.7788 37.6053 82.6426 38.1585 82.666 38.7165C82.6895 39.2746 82.8717 39.8144 83.1911 40.2724C83.5106 40.7305 83.9541 41.0878 84.4695 41.3024C84.9849 41.5171 85.5508 41.5801 86.1007 41.484C86.6507 41.388 87.1618 41.1369 87.5741 40.7603L87.6173 40.7242V39.1184H85.2121C85.0675 39.1211 84.9254 39.0801 84.8043 39.0008C84.6832 38.9216 84.5888 38.8077 84.5333 38.674C84.4777 38.5404 84.4637 38.3931 84.493 38.2513C84.5222 38.1095 84.5934 37.9798 84.6973 37.8791C84.7634 37.8094 84.8434 37.7542 84.932 37.7172C85.0207 37.6802 85.1161 37.6621 85.2121 37.6642H88.3369C88.53 37.6653 88.715 37.7426 88.8515 37.8792C88.9881 38.0159 89.0654 38.2009 89.0665 38.3942L89.0478 42.2809C89.0444 42.4712 88.9674 42.6527 88.8329 42.7873C88.6984 42.9219 88.5169 42.9989 88.3268 43.0023H88.3196C88.1594 43.0028 88.0038 42.9489 87.8783 42.8493C87.7556 42.7555 87.6673 42.6236 87.6274 42.4742C86.9989 42.8071 86.2981 42.98 85.587 42.9778L85.5928 42.9792ZM79.0737 43.0023C78.8832 42.9997 78.7014 42.9228 78.5667 42.7881C78.4321 42.6534 78.3553 42.4714 78.3527 42.2809V34.9706C78.3527 34.7792 78.4286 34.5958 78.5638 34.4605C78.699 34.3252 78.8824 34.2492 79.0737 34.2492C79.2649 34.2492 79.4482 34.3252 79.5835 34.4605C79.7187 34.5958 79.7946 34.7792 79.7946 34.9706V42.2838C79.792 42.4743 79.7152 42.6563 79.5806 42.791C79.4459 42.9257 79.2641 43.0026 79.0737 43.0052V43.0023ZM72.4983 34.2131C72.6884 34.2165 72.8699 34.2935 73.0044 34.4281C73.1389 34.5627 73.2159 34.7442 73.2193 34.9345V41.5567H76.4608C76.5567 41.5554 76.6519 41.5738 76.7404 41.6108C76.829 41.6478 76.909 41.7025 76.9756 41.7716C77.1099 41.9068 77.1852 42.0896 77.1852 42.2802C77.1852 42.4708 77.1099 42.6536 76.9756 42.7888C76.9089 42.8577 76.8288 42.9123 76.7403 42.9492C76.6518 42.9862 76.5567 43.0047 76.4608 43.0037H72.4954C72.3052 43.0004 72.1238 42.9233 71.9893 42.7887C71.8548 42.6542 71.7777 42.4726 71.7744 42.2824V34.9345C71.7777 34.7442 71.8548 34.5627 71.9893 34.4281C72.1238 34.2935 72.3052 34.2165 72.4954 34.2131H72.4983ZM69.659 41.5523C69.7538 41.5506 69.848 41.5687 69.9354 41.6054C70.0228 41.6422 70.1015 41.6969 70.1666 41.7659C70.2358 41.8324 70.2906 41.9124 70.3276 42.001C70.3645 42.0896 70.3829 42.1849 70.3815 42.2809C70.3781 42.4712 70.3011 42.6527 70.1666 42.7873C70.0321 42.9219 69.8507 42.9989 69.6605 43.0023H65.2235C65.0331 42.9997 64.8513 42.9228 64.7166 42.7881C64.582 42.6534 64.5052 42.4714 64.5025 42.2809V34.9229C64.5029 34.7309 64.5787 34.5468 64.7136 34.4102C64.8485 34.2736 65.0316 34.1956 65.2235 34.1929L69.6547 34.2059C69.7501 34.2059 69.8446 34.2248 69.9326 34.2616C70.0207 34.2984 70.1005 34.3523 70.1676 34.4202C70.2347 34.4881 70.2876 34.5687 70.3233 34.6572C70.359 34.7457 70.3768 34.8405 70.3757 34.9359C70.3724 35.1262 70.2953 35.3078 70.1608 35.4423C70.0263 35.5769 69.8449 35.654 69.6547 35.6573L65.9546 35.6458V37.8705H68.6266C68.7219 37.8695 68.8166 37.8875 68.9049 37.9235C68.9933 37.9594 69.0737 38.0125 69.1414 38.0797C69.2098 38.1468 69.2642 38.227 69.3013 38.3154C69.3384 38.4038 69.3576 38.4988 69.3576 38.5947C69.3576 38.6906 69.3384 38.7856 69.3013 38.874C69.2642 38.9625 69.2098 39.0426 69.1414 39.1098C69.0735 39.1767 68.9931 39.2295 68.9048 39.2652C68.8164 39.3009 68.7218 39.3186 68.6266 39.3175H65.9532V41.5437L69.659 41.5523ZM59.421 35.6472H57.607C57.4158 35.6472 57.2324 35.5712 57.0972 35.4359C56.962 35.3006 56.8861 35.1172 56.8861 34.9258C56.8861 34.7345 56.962 34.551 57.0972 34.4158C57.2324 34.2805 57.4158 34.2045 57.607 34.2045H62.7001C62.8913 34.2045 63.0747 34.2805 63.2099 34.4158C63.3451 34.551 63.4211 34.7345 63.4211 34.9258C63.4211 35.1172 63.3451 35.3006 63.2099 35.4359C63.0747 35.5712 62.8913 35.6472 62.7001 35.6472H60.8731V42.2838C60.8744 42.3798 60.8559 42.475 60.819 42.5636C60.782 42.6522 60.7273 42.7322 60.6583 42.7989C60.5235 42.931 60.3423 43.0051 60.1536 43.0051C59.9648 43.0051 59.7836 42.931 59.6489 42.7989C59.5798 42.7322 59.5251 42.6522 59.4881 42.5636C59.4512 42.475 59.4328 42.3798 59.434 42.2838L59.421 35.6472ZM54.2559 42.7282L49.8493 37.0582V42.2867C49.8493 42.478 49.7733 42.6615 49.6381 42.7968C49.5029 42.9321 49.3195 43.008 49.1283 43.008C48.937 43.008 48.7537 42.9321 48.6185 42.7968C48.4832 42.6615 48.4073 42.478 48.4073 42.2867V34.9345C48.4053 34.7848 48.4529 34.6387 48.5428 34.519C48.629 34.3945 48.7536 34.3017 48.8976 34.255C49.0391 34.2016 49.1944 34.197 49.3388 34.242C49.4833 34.2852 49.6102 34.3737 49.7007 34.4945L54.1059 40.1716V34.9345C54.1044 34.8401 54.1222 34.7463 54.1581 34.659C54.1941 34.5717 54.2475 34.4926 54.315 34.4266C54.3816 34.3575 54.4616 34.3028 54.5502 34.2658C54.6387 34.2289 54.7339 34.2104 54.8298 34.2117C55.02 34.215 55.2014 34.2921 55.3359 34.4267C55.4704 34.5612 55.5475 34.7428 55.5508 34.933V42.291C55.5523 42.303 55.5523 42.3151 55.5508 42.3271V42.3588C55.5523 42.3708 55.5523 42.3829 55.5508 42.3949C55.5512 42.4078 55.5488 42.4206 55.5436 42.4324V42.4627C55.5436 42.4829 55.5364 42.4959 55.5321 42.4988C55.5294 42.5099 55.525 42.5206 55.5191 42.5305C55.5191 42.5464 55.5104 42.5579 55.5075 42.5666L55.4946 42.5969L55.4773 42.6286L55.4585 42.6647L55.4398 42.6834L55.4153 42.7195L55.3965 42.744L55.372 42.7686C55.3605 42.7859 55.3518 42.7931 55.3475 42.7931C55.3432 42.7931 55.3403 42.8061 55.323 42.8176C55.3145 42.8277 55.3043 42.836 55.2927 42.8421C55.3057 42.8349 55.3028 42.8421 55.2927 42.8493C55.2631 42.8712 55.2323 42.8915 55.2004 42.9099C55.1687 42.9264 55.1359 42.9409 55.1023 42.9532H55.0908C55.0576 42.9665 55.0226 42.9747 54.987 42.9778H54.9682C54.9338 42.9821 54.8991 42.9845 54.8644 42.985C54.8378 42.9846 54.8113 42.9822 54.7851 42.9778C54.7918 42.9778 54.7875 42.9778 54.7721 42.9778C54.7512 42.9753 54.7305 42.9714 54.7101 42.9662C54.7101 42.9662 54.7101 42.9662 54.6856 42.9662L54.638 42.9532C54.6289 42.9518 54.6204 42.9478 54.6135 42.9417C54.596 42.9391 54.5792 42.9327 54.5645 42.9229C54.5597 42.9228 54.555 42.9215 54.5507 42.9193C54.5465 42.917 54.5428 42.9138 54.54 42.9099L54.4967 42.8926L54.4722 42.8739L54.4289 42.8436L54.4044 42.8248C54.3852 42.8096 54.3669 42.7932 54.3496 42.7758L54.3251 42.7498C54.3182 42.7422 54.3119 42.734 54.3064 42.7253L54.2559 42.7282ZM45.8074 43.0023C45.6172 42.9989 45.4358 42.9219 45.3013 42.7873C45.1668 42.6527 45.0898 42.4712 45.0864 42.2809V34.9706C45.0864 34.7792 45.1624 34.5958 45.2976 34.4605C45.4328 34.3252 45.6162 34.2492 45.8074 34.2492C45.9986 34.2492 46.182 34.3252 46.3172 34.4605C46.4524 34.5958 46.5284 34.7792 46.5284 34.9706V42.2838C46.5258 42.4743 46.449 42.6563 46.3143 42.791C46.1797 42.9257 45.9978 43.0026 45.8074 43.0052" fill="white"/>
<path d="M103.545 16.5828C103.533 16.9358 103.45 17.2827 103.299 17.6021C103.148 17.9214 102.934 18.2065 102.668 18.4396C102.13 18.9404 101.419 19.213 100.684 19.1999C100.061 19.2091 99.4452 19.0602 98.8948 18.7671C98.5987 18.6182 98.3378 18.4076 98.1296 18.1496C97.9215 17.8916 97.7709 17.592 97.6878 17.271C97.663 17.1798 97.6567 17.0846 97.6694 16.9909C97.682 16.8972 97.7133 16.807 97.7614 16.7257C97.8082 16.643 97.8715 16.5708 97.9474 16.5137C98.0233 16.4566 98.1102 16.4158 98.2026 16.3938C98.2938 16.369 98.389 16.3627 98.4826 16.3754C98.5762 16.388 98.6663 16.4193 98.7477 16.4674C98.8298 16.5146 98.9015 16.5782 98.9583 16.6541C99.0151 16.73 99.0558 16.8167 99.0779 16.9089C99.123 17.0546 99.2006 17.1882 99.3047 17.2997C99.4089 17.4111 99.5369 17.4975 99.6792 17.5523C99.9967 17.6932 100.341 17.7626 100.689 17.7558C101.051 17.7635 101.403 17.6342 101.675 17.3936C101.807 17.2866 101.915 17.1523 101.991 17C102.067 16.8477 102.11 16.6809 102.116 16.5107C102.121 16.404 102.103 16.2976 102.064 16.1982C102.025 16.0988 101.966 16.0087 101.89 15.9336C101.636 15.6633 101.211 15.5243 100.615 15.5166H100.585C99.5821 15.5003 98.8159 15.2117 98.2862 14.651C98.0776 14.4399 97.9151 14.1879 97.8088 13.9107C97.7026 13.6336 97.655 13.3374 97.6691 13.0409C97.6804 12.6868 97.764 12.3388 97.9148 12.0182C98.0656 11.6976 98.2803 11.4113 98.5458 11.1769C99.0839 10.6751 99.7959 10.4024 100.531 10.4166C101.154 10.4076 101.769 10.5565 102.319 10.8494C102.616 10.9983 102.876 11.2089 103.085 11.4669C103.293 11.7249 103.443 12.0245 103.526 12.3455C103.551 12.437 103.557 12.5326 103.543 12.6264C103.53 12.7203 103.497 12.8103 103.447 12.8909C103.402 12.9733 103.34 13.0454 103.266 13.1025C103.191 13.1597 103.106 13.2006 103.014 13.2227C102.923 13.2475 102.828 13.2538 102.734 13.2412C102.64 13.2286 102.55 13.1973 102.468 13.1491C102.386 13.1019 102.314 13.0384 102.257 12.9624C102.201 12.8865 102.16 12.7998 102.138 12.7076C102.092 12.5613 102.014 12.4273 101.908 12.3158C101.803 12.2044 101.674 12.1183 101.531 12.0642C101.217 11.9241 100.876 11.8552 100.533 11.8622C100.168 11.8547 99.8142 11.9833 99.5393 12.2229C99.4099 12.3319 99.3046 12.4668 99.2301 12.6188C99.1556 12.7708 99.1136 12.9367 99.1067 13.1058C99.1034 13.2125 99.1219 13.3187 99.1611 13.4179C99.2003 13.5171 99.2593 13.6073 99.3345 13.6829C99.5869 13.9484 100.012 14.0854 100.608 14.0927H100.64C101.64 14.11 102.406 14.3985 102.937 14.9583C103.147 15.1709 103.31 15.4254 103.416 15.7053C103.521 15.9852 103.567 16.2842 103.549 16.5828H103.545ZM95.907 17.7471C96.0021 17.7456 96.0965 17.764 96.1841 17.801C96.2718 17.838 96.3507 17.8928 96.416 17.9621C96.4849 18.0288 96.5394 18.1089 96.5761 18.1975C96.6128 18.2861 96.6309 18.3812 96.6294 18.4771C96.6275 18.6679 96.551 18.8503 96.4162 18.9851C96.2814 19.12 96.0991 19.1966 95.9084 19.1985H91.4614C91.271 19.1959 91.0891 19.1191 90.9545 18.9843C90.8198 18.8496 90.743 18.6676 90.7404 18.4771V11.1192C90.7415 10.9274 90.8176 10.7437 90.9523 10.6072C91.087 10.4708 91.2697 10.3925 91.4614 10.3892L95.8926 10.4021C95.9884 10.4006 96.0835 10.4188 96.1721 10.4555C96.2606 10.4922 96.3407 10.5467 96.4074 10.6157C96.4743 10.6835 96.5271 10.764 96.5627 10.8524C96.5983 10.9408 96.6161 11.0354 96.615 11.1307C96.6124 11.3212 96.5356 11.5032 96.4009 11.6379C96.2663 11.7726 96.0844 11.8495 95.894 11.8521L92.1925 11.8391V14.0653H94.8644C94.9598 14.0636 95.0545 14.0812 95.1429 14.1169C95.2313 14.1526 95.3117 14.2057 95.3792 14.273C95.4831 14.3737 95.5543 14.5034 95.5836 14.6452C95.6129 14.7869 95.5988 14.9342 95.5433 15.0679C95.4878 15.2016 95.3933 15.3154 95.2723 15.3947C95.1512 15.474 95.0091 15.5149 94.8644 15.5123H92.191V17.737L95.907 17.7471ZM82.7144 19.1999C82.5232 19.1999 82.3398 19.1239 82.2046 18.9887C82.0694 18.8534 81.9934 18.6699 81.9934 18.4786V11.1379C81.9923 11.042 82.0108 10.9468 82.0478 10.8583C82.0847 10.7697 82.1393 10.6896 82.2083 10.6229C82.2745 10.5554 82.3538 10.5021 82.4413 10.4664C82.5289 10.4307 82.6228 10.4132 82.7173 10.4151H84.5731C85.439 10.414 86.2857 10.6699 87.0061 11.1504C87.7266 11.631 88.2884 12.3145 88.6204 13.1146C88.9525 13.9147 89.0399 14.7953 88.8716 15.6451C88.7032 16.4949 88.2867 17.2756 87.6748 17.8885C87.2731 18.3037 86.7906 18.632 86.2572 18.8534C85.7237 19.0747 85.1506 19.1843 84.5731 19.1754L82.7288 19.1999H82.7144ZM83.4354 17.7413L84.5573 17.7226C85.334 17.7226 86.0789 17.4139 86.6281 16.8644C87.1773 16.3148 87.4859 15.5695 87.4859 14.7924C87.4859 14.0153 87.1773 13.2699 86.6281 12.7204C86.0789 12.1709 85.334 11.8622 84.5573 11.8622H83.4296L83.4354 17.7413ZM73.63 19.1451C73.5422 19.1091 73.4624 19.056 73.3952 18.9891C73.3279 18.9221 73.2746 18.8425 73.2381 18.7548C73.2017 18.6672 73.1829 18.5732 73.1828 18.4782C73.1828 18.3833 73.2015 18.2893 73.2378 18.2016L74.0165 16.326V16.3188L76.2659 10.8768C76.274 10.8552 76.2841 10.8344 76.2962 10.8148L76.3077 10.7845L76.3323 10.7542C76.3367 10.743 76.343 10.7328 76.351 10.7239L76.3755 10.6993C76.3755 10.6993 76.3755 10.6864 76.3943 10.6748C76.413 10.6633 76.4188 10.6474 76.4188 10.6431C76.4265 10.6367 76.4347 10.6309 76.4433 10.6258C76.4592 10.6085 76.4692 10.6012 76.4736 10.6012C76.4779 10.6012 76.4736 10.594 76.4981 10.5825L76.5284 10.558L76.5529 10.5392C76.5647 10.5316 76.5772 10.5253 76.5904 10.5204L76.6322 10.5031C76.6538 10.4902 76.6596 10.4858 76.6509 10.4902L76.6754 10.4786C76.6903 10.4759 76.7048 10.4716 76.7187 10.4656L76.762 10.4541H76.7865H76.8297H76.86H77.0042H77.0403H77.0705C77.0856 10.4559 77.1003 10.4603 77.1138 10.4671C77.1383 10.4671 77.147 10.4671 77.1383 10.4671C77.1858 10.4791 77.2314 10.4975 77.2739 10.5219C77.2739 10.5219 77.2739 10.5219 77.2969 10.5349C77.3104 10.5414 77.323 10.5497 77.3344 10.5594L77.3589 10.5782L77.3892 10.6027C77.3892 10.6027 77.4022 10.6027 77.4137 10.62C77.4225 10.6303 77.4333 10.6386 77.4455 10.6445C77.4455 10.6445 77.4455 10.6575 77.4628 10.6691C77.4801 10.6806 77.4873 10.6965 77.4873 10.7008L77.506 10.7253C77.5219 10.7412 77.5305 10.7513 77.5305 10.7556C77.5343 10.7671 77.5407 10.7774 77.5493 10.7859C77.5568 10.7949 77.5626 10.8052 77.5666 10.8162C77.5786 10.8361 77.5892 10.8569 77.5983 10.8782L79.8535 16.3217V16.3289L80.6308 18.2045C80.7037 18.3809 80.7037 18.5791 80.6308 18.7556C80.5764 18.888 80.4839 19.0012 80.365 19.0809C80.2461 19.1605 80.1062 19.203 79.9631 19.2028C79.8184 19.2111 79.6748 19.172 79.5544 19.0912C79.4339 19.0105 79.343 18.8927 79.2955 18.7556L78.7057 17.3302H75.1556L74.5687 18.7527C74.5208 18.8898 74.4296 19.0075 74.3089 19.0882C74.1882 19.1689 74.0446 19.2081 73.8997 19.1999H73.7555L73.6199 19.1451H73.63ZM78.1059 15.8903L76.9278 13.0409L75.7511 15.886L78.1059 15.8903ZM65.679 19.1999C65.4878 19.1999 65.3044 19.1239 65.1692 18.9887C65.034 18.8534 64.958 18.6699 64.958 18.4786V11.1379C64.9569 11.042 64.9754 10.9468 65.0124 10.8583C65.0493 10.7697 65.1039 10.6896 65.1729 10.6229C65.2391 10.5554 65.3184 10.5021 65.4059 10.4664C65.4934 10.4307 65.5874 10.4132 65.6819 10.4151H67.5377C68.4035 10.414 69.2503 10.6699 69.9707 11.1504C70.6912 11.631 71.253 12.3145 71.585 13.1146C71.9171 13.9147 72.0045 14.7953 71.8361 15.6451C71.6678 16.4949 71.2513 17.2756 70.6394 17.8885C70.2377 18.3037 69.7552 18.632 69.2217 18.8534C68.6883 19.0747 68.1151 19.1843 67.5377 19.1754L65.6934 19.1999H65.679ZM66.4072 17.7413L67.529 17.7226C68.3058 17.7226 69.0507 17.4139 69.5999 16.8644C70.1491 16.3148 70.4577 15.5695 70.4577 14.7924C70.4577 14.0153 70.1491 13.2699 69.5999 12.7204C69.0507 12.1709 68.3058 11.8622 67.529 11.8622H66.4014L66.4072 17.7413ZM62.3019 10.4094C62.3953 10.4092 62.4878 10.4274 62.5742 10.4631C62.6605 10.4988 62.7389 10.5512 62.805 10.6173C62.871 10.6833 62.9234 10.7618 62.9591 10.8482C62.9947 10.9346 63.013 11.0272 63.0128 11.1206V16.062C62.9952 16.882 62.6573 17.6625 62.0714 18.2362C61.4856 18.81 60.6984 19.1312 59.8787 19.1312C59.0589 19.1312 58.2717 18.81 57.6859 18.2362C57.1001 17.6625 56.7621 16.882 56.7446 16.062V11.1206C56.7446 10.932 56.8194 10.7511 56.9528 10.6177C57.0861 10.4843 57.2669 10.4094 57.4554 10.4094C57.644 10.4094 57.8248 10.4843 57.9581 10.6177C58.0914 10.7511 58.1663 10.932 58.1663 11.1206V16.062C58.1663 16.5166 58.3468 16.9525 58.6681 17.274C58.9893 17.5954 59.4251 17.776 59.8794 17.776C60.3337 17.776 60.7694 17.5954 61.0907 17.274C61.412 16.9525 61.5925 16.5166 61.5925 16.062V11.1206C61.5923 11.0273 61.6105 10.9348 61.646 10.8485C61.6816 10.7623 61.7338 10.6838 61.7997 10.6178C61.8656 10.5517 61.9439 10.4993 62.0301 10.4635C62.1162 10.4278 62.2086 10.4094 62.3019 10.4094ZM54.2442 19.1999C54.0538 19.1973 53.8719 19.1205 53.7372 18.9858C53.6026 18.8511 53.5258 18.6691 53.5232 18.4786V11.1654C53.5232 10.974 53.5991 10.7906 53.7344 10.6553C53.8696 10.52 54.053 10.444 54.2442 10.444C54.4354 10.444 54.6188 10.52 54.754 10.6553C54.8892 10.7906 54.9652 10.974 54.9652 11.1654V18.48C54.9625 18.6705 54.8857 18.8525 54.7511 18.9872C54.6165 19.1219 54.4346 19.1988 54.2442 19.2014V19.1999ZM48.9377 19.2014C48.0725 19.2011 47.2268 18.9441 46.5074 18.4631C45.7881 17.982 45.2274 17.2984 44.8962 16.4986C44.5651 15.6988 44.4783 14.8188 44.6468 13.9696C44.8154 13.1205 45.2317 12.3405 45.8433 11.728C46.2447 11.3135 46.7267 10.9856 47.2597 10.7648C47.7927 10.544 48.3652 10.4348 48.9421 10.444C49.9096 10.4356 50.8515 10.7555 51.614 11.3515C51.7654 11.4679 51.8645 11.6396 51.8894 11.829C51.9031 11.924 51.8974 12.0208 51.8726 12.1136C51.8478 12.2063 51.8045 12.2931 51.7452 12.3686C51.6891 12.4451 51.6177 12.5091 51.5355 12.5565C51.4534 12.604 51.3622 12.6338 51.2679 12.6442C51.173 12.6572 51.0764 12.6511 50.9838 12.6264C50.8912 12.6016 50.8044 12.5586 50.7287 12.4999C50.2873 12.1621 49.7588 11.9572 49.2052 11.9093C48.6515 11.8613 48.0957 11.9722 47.6029 12.229C47.11 12.4858 46.7005 12.8779 46.4224 13.3593C46.1444 13.8406 46.0092 14.3913 46.0327 14.9468C46.0563 15.5023 46.2376 16.0395 46.5555 16.4956C46.8734 16.9516 47.3146 17.3076 47.8274 17.5217C48.3402 17.7358 48.9034 17.7992 49.451 17.7044C49.9986 17.6097 50.5078 17.3608 50.919 16.9868C50.9883 16.9215 51.0703 16.871 51.1598 16.8385C51.2493 16.806 51.3445 16.7922 51.4395 16.7978C51.5352 16.8 51.6293 16.8224 51.7158 16.8634C51.8022 16.9044 51.8791 16.9632 51.9414 17.0358C52.0063 17.1056 52.0567 17.1876 52.0898 17.277C52.1228 17.3664 52.1378 17.4615 52.134 17.5567C52.1301 17.652 52.1074 17.7455 52.0671 17.8319C52.0269 17.9184 51.9699 17.9959 51.8995 18.0602C51.0979 18.8063 50.0397 19.2145 48.9449 19.1999" fill="white"/>
<path d="M35.4474 18.6055C35.2957 18.6056 35.148 18.5566 35.0264 18.4659C34.9048 18.3751 34.8158 18.2475 34.7726 18.102C34.3838 16.805 33.8452 15.5577 33.1677 14.3855C33.0754 14.2266 33.049 14.0378 33.094 13.8596C33.139 13.6815 33.2519 13.5279 33.4085 13.4319L35.9074 11.8954C35.5424 11.3159 35.1482 10.7554 34.7264 10.216L33.3075 11.2259C33.159 11.3313 32.9755 11.3752 32.7955 11.3483C32.6154 11.3214 32.4527 11.2259 32.3414 11.0817C32.3041 11.0323 32.2731 10.9785 32.2491 10.9215C31.7373 10.327 31.1893 9.76469 30.6082 9.23784L30.2563 9.65479C30.1516 9.77969 30.007 9.86447 29.8469 9.89472C29.6868 9.92496 29.5212 9.89881 29.3782 9.82071C29.3259 9.79171 29.2775 9.75633 29.234 9.71539C28.4657 9.0721 27.6442 8.49534 26.7783 7.99132C26.6195 7.89931 26.5028 7.74898 26.4529 7.57226C26.4031 7.39554 26.4241 7.20635 26.5115 7.04488L26.5346 7.0016C26.5374 6.99553 26.5408 6.98973 26.5447 6.98429L26.7884 6.56301C26.0393 6.1689 25.2641 5.82665 24.4683 5.53866C24.3639 5.5045 24.269 5.44618 24.1914 5.36842C24.0786 5.25486 24.0077 5.10627 23.9904 4.94707C23.9732 4.78787 24.0106 4.62753 24.0965 4.49242C24.1824 4.3573 24.3117 4.25543 24.4631 4.20357C24.6145 4.1517 24.779 4.15292 24.9297 4.20702C26.0308 4.60575 27.0951 5.09959 28.1107 5.68294C28.2226 5.74791 28.3145 5.84245 28.3763 5.9562C28.4381 6.06995 28.4674 6.19853 28.4611 6.32784C28.4559 6.44873 28.4191 6.56614 28.3544 6.66833L28.0847 7.13433C28.6154 7.46905 29.1316 7.82973 29.6262 8.21494L29.9751 7.79943C29.9838 7.78933 29.991 7.77923 29.9996 7.77058C30.1225 7.6311 30.2952 7.54552 30.4805 7.5323C30.6658 7.51907 30.8489 7.57926 30.9903 7.69988C31.009 7.71575 31.0263 7.73307 31.0436 7.75038C31.7504 8.35052 32.4157 8.99786 33.035 9.68797L34.4438 8.67806C34.5881 8.57491 34.766 8.53009 34.9419 8.55256C35.1179 8.57503 35.2788 8.66314 35.3926 8.79925C36.1718 9.72749 36.8708 10.7203 37.482 11.767C37.5749 11.9261 37.6018 12.1153 37.5571 12.294C37.5124 12.4728 37.3995 12.6269 37.2427 12.7235L34.7264 14.2802C35.3047 15.3707 35.7742 16.5155 36.128 17.698C36.1591 17.8033 36.1653 17.9143 36.1461 18.0224C36.1269 18.1304 36.0828 18.2325 36.0173 18.3206C35.9519 18.4086 35.8668 18.4802 35.7689 18.5297C35.671 18.5791 35.5629 18.6051 35.4532 18.6055H35.4474ZM0.707483 18.4209C0.636113 18.4209 0.565141 18.4102 0.496955 18.3891C0.320056 18.3336 0.172206 18.2105 0.0855341 18.0465C-0.00113784 17.8825 -0.0196274 17.6909 0.0340835 17.5134C0.378853 16.405 0.825362 15.3308 1.36791 14.3047L0.881962 14.0162C0.801765 13.9699 0.731473 13.9082 0.675099 13.8347C0.618726 13.7612 0.577374 13.6773 0.553406 13.5878C0.529437 13.4983 0.523322 13.405 0.535409 13.3131C0.547496 13.2212 0.577548 13.1327 0.623849 13.0524C1.12005 12.195 1.67864 11.3752 2.29509 10.5998L0.55175 8.7199C0.434584 8.59334 0.367712 8.42829 0.363728 8.25583C0.359744 8.08337 0.418924 7.9154 0.530121 7.78356C1.31173 6.86063 2.16987 6.00541 3.09538 5.22703C3.16672 5.16743 3.24911 5.12249 3.33784 5.09479C3.42656 5.0671 3.51988 5.05719 3.61243 5.06563C3.70499 5.07407 3.79498 5.1007 3.87723 5.144C3.95949 5.18729 4.0324 5.2464 4.09179 5.31793L6.91372 8.73721C6.93869 8.76515 6.96135 8.79506 6.98149 8.82666C7.07544 8.9784 7.10842 9.16012 7.07377 9.33521C7.03912 9.51031 6.93943 9.66576 6.79478 9.77023C6.65014 9.8747 6.47129 9.92043 6.29428 9.89821C6.11727 9.87599 5.95526 9.78746 5.84089 9.65046L3.45876 6.77365C2.95395 7.2328 2.47268 7.71722 2.01679 8.22504L3.74715 10.0775C3.77615 10.1056 3.80224 10.1365 3.82502 10.1698C3.9155 10.3021 3.9585 10.4611 3.94697 10.621C3.93545 10.7808 3.87009 10.932 3.76157 11.0499C3.20022 11.7151 2.68564 12.4184 2.22155 13.1549L2.68731 13.4232C2.84868 13.517 2.96623 13.671 3.01409 13.8515C3.06196 14.032 3.03622 14.224 2.94254 14.3855C2.29632 15.5046 1.77642 16.692 1.39242 17.926C1.34718 18.0716 1.25595 18.1985 1.13244 18.2877C1.00892 18.377 0.859804 18.4237 0.707483 18.4209ZM8.27638 7.03767C8.12153 7.03765 7.97099 6.98663 7.84801 6.89249C7.72502 6.79835 7.63643 6.66632 7.59591 6.51679C7.55539 6.36725 7.56519 6.20853 7.6238 6.06513C7.68242 5.92172 7.78658 5.80161 7.92021 5.72333C8.95481 5.12008 10.0411 4.61022 11.1661 4.19981C11.253 4.16779 11.3455 4.15335 11.438 4.15731C11.5306 4.16127 11.6215 4.18356 11.7054 4.22289C11.8745 4.30258 12.0055 4.4456 12.0702 4.62108L12.262 5.15057C12.8658 4.95641 13.4789 4.79269 14.0991 4.66004L13.5814 1.12966C13.5677 1.03762 13.5725 0.943775 13.5953 0.853568C13.6181 0.763361 13.6586 0.678577 13.7144 0.604117C13.7702 0.529658 13.8402 0.467001 13.9203 0.419769C14.0004 0.372537 14.0891 0.341666 14.1812 0.328944C14.2779 0.315959 16.5576 0 17.8525 0C18.0313 0.000348215 18.2033 0.0686336 18.3336 0.19104C18.464 0.313446 18.543 0.480833 18.5547 0.65933L18.709 3.00089C19.6591 3.03083 20.6059 3.12725 21.5425 3.28944C21.6337 3.30602 21.7207 3.3404 21.7986 3.39063C21.8765 3.44085 21.9437 3.50594 21.9965 3.58217C22.0492 3.6584 22.0865 3.74428 22.1061 3.8349C22.1257 3.92553 22.1272 4.01913 22.1106 4.11036C22.0941 4.20158 22.0597 4.28865 22.0095 4.36659C21.9593 4.44453 21.8942 4.51181 21.8181 4.56459C21.7419 4.61738 21.656 4.65463 21.5655 4.67422C21.4749 4.69382 21.3813 4.69537 21.2902 4.67879C21.2759 4.67744 21.2619 4.67454 21.2483 4.67014C20.1914 4.48873 19.121 4.39751 18.0486 4.39746C17.87 4.39748 17.698 4.32951 17.5676 4.20734C17.4372 4.08516 17.3581 3.91794 17.3464 3.73957L17.1935 1.43119C16.4855 1.47303 15.6549 1.56393 15.0796 1.63462L15.5872 5.09719C15.6047 5.18895 15.6038 5.2833 15.5845 5.37471C15.5652 5.46612 15.5279 5.55276 15.4747 5.62956C15.3658 5.7824 15.201 5.88609 15.0161 5.91811C14.0192 6.0902 13.0392 6.34944 12.0875 6.69285C12.044 6.70924 11.9991 6.72179 11.9534 6.73036C11.7903 6.75933 11.6222 6.72978 11.4787 6.64691C11.3352 6.56404 11.2255 6.43317 11.169 6.27735L10.9844 5.77239C10.2007 6.09291 9.43955 6.46598 8.70609 6.88907L8.68734 6.90061L8.62101 6.93812C8.51661 7.00041 8.3979 7.0347 8.27638 7.03767Z" fill="white"/>
<path d="M5.52572 55.0001C5.3168 55 5.11262 54.9379 4.93897 54.8216C4.76531 54.7054 4.62998 54.5403 4.55005 54.3472C4.47012 54.1541 4.44919 53.9416 4.4899 53.7366C4.53061 53.5315 4.63114 53.3432 4.77878 53.1953C7.57604 50.3803 11.2105 48.5492 15.1364 47.9769C12.0276 44.2171 2.59131 32.0938 2.59131 23.5023C2.59131 15.0652 9.43201 8.19922 17.8401 8.19922C26.2108 8.19922 33.0515 15.0594 33.089 23.4922C33.1077 27.7267 30.8885 33.2567 26.4919 39.9308C24.6446 42.7163 22.6494 45.4007 20.515 47.9726C24.4503 48.5406 28.0943 50.3737 30.8972 53.1953C31.0903 53.3947 31.1974 53.6621 31.1951 53.9398C31.1929 54.2175 31.0816 54.4832 30.8852 54.6795C30.6889 54.8757 30.4232 54.9869 30.1457 54.9888C29.8681 54.9908 29.601 54.8834 29.4018 54.69C27.8863 53.1657 26.0838 51.9572 24.0985 51.1343C22.1133 50.3114 19.9847 49.8905 17.8358 49.8957H17.7998C15.656 49.8938 13.5331 50.3163 11.5532 51.1388C9.57339 51.9614 7.77579 53.1678 6.264 54.6885C6.06877 54.886 5.80331 54.998 5.52572 55.0001ZM17.8416 10.3143C10.5986 10.3143 4.70668 16.2295 4.70668 23.5023C4.70668 30.9281 13.1984 42.5912 17.6844 47.7201C17.701 47.7391 17.7216 47.7543 17.7446 47.7648C17.7676 47.7752 17.7925 47.7806 17.8178 47.7806C17.843 47.7806 17.868 47.7752 17.891 47.7648C17.914 47.7543 17.9345 47.7391 17.9512 47.7201C20.3975 44.8822 22.6612 41.8916 24.7284 38.7665C28.8337 32.5367 30.9952 27.2578 30.9779 23.5023C30.9433 16.2309 25.0514 10.3143 17.8416 10.3143ZM17.8416 29.3945C16.6677 29.3945 15.5202 29.0462 14.5442 28.3937C13.5682 27.7412 12.8074 26.8137 12.3582 25.7286C11.909 24.6436 11.7915 23.4496 12.0205 22.2977C12.2495 21.1457 12.8147 20.0876 13.6448 19.2571C14.4748 18.4267 15.5324 17.8611 16.6837 17.632C17.835 17.4028 19.0284 17.5204 20.1129 17.9699C21.1974 18.4193 22.1243 19.1805 22.7765 20.157C23.4286 21.1336 23.7767 22.2817 23.7767 23.4562C23.7748 25.0305 23.1489 26.5398 22.0362 27.6531C20.9236 28.7663 19.4151 29.3926 17.8416 29.3945ZM17.8416 19.6343C17.0857 19.6341 16.3467 19.8581 15.7181 20.2781C15.0895 20.6981 14.5995 21.2952 14.3101 21.9938C14.0207 22.6925 13.9449 23.4614 14.0923 24.2031C14.2397 24.9449 14.6036 25.6263 15.1381 26.161C15.6726 26.6958 16.3536 27.06 17.095 27.2075C17.8364 27.3549 18.6048 27.2791 19.3031 26.9895C20.0014 26.7 20.5982 26.2097 21.018 25.5808C21.4377 24.9518 21.6616 24.2124 21.6614 23.4562C21.6602 22.4429 21.2574 21.4715 20.5413 20.755C19.8252 20.0385 18.8543 19.6355 17.8416 19.6343Z" fill="white"/>
<path d="M45.1982 30.3235V23.169C45.1982 22.7477 45.4765 22.4072 45.8183 22.4072H50.5451C50.8724 22.4072 51.1392 22.7333 51.1392 23.1373C51.1392 23.5412 50.8724 23.8687 50.5451 23.8687H46.4383V26.1295H49.168C49.4968 26.1295 49.7621 26.457 49.7621 26.861C49.7621 27.2649 49.4968 27.591 49.168 27.591H46.4383V29.6238H50.3605C50.6864 29.6238 50.9546 29.9542 50.9546 30.3553C50.9546 30.7563 50.6893 31.0867 50.3605 31.0867H45.8183C45.4765 31.0867 45.1982 30.7448 45.1982 30.3235Z" fill="white"/>
<path d="M57.0763 30.9021C56.9763 30.9022 56.8772 30.8827 56.7847 30.8445C56.6923 30.8062 56.6083 30.7501 56.5375 30.6794C56.4668 30.6086 56.4107 30.5245 56.3725 30.432C56.3343 30.3395 56.3148 30.2404 56.3149 30.1403V23.169C56.3149 22.967 56.3952 22.7732 56.5379 22.6303C56.6807 22.4875 56.8744 22.4072 57.0763 22.4072C57.2782 22.4072 57.4719 22.4875 57.6147 22.6303C57.7574 22.7732 57.8377 22.967 57.8377 23.169V30.1403C57.8379 30.2404 57.8183 30.3395 57.7801 30.432C57.7419 30.5245 57.6858 30.6086 57.6151 30.6794C57.5443 30.7501 57.4603 30.8062 57.3679 30.8445C57.2754 30.8827 57.1763 30.9022 57.0763 30.9021Z" fill="white"/>
<path d="M73.5389 30.172C73.5385 30.3658 73.4613 30.5515 73.3243 30.6883C73.1872 30.8252 73.0015 30.9021 72.8078 30.9021H68.9664C68.8664 30.9022 68.7673 30.8827 68.6749 30.8445C68.5824 30.8062 68.4984 30.7501 68.4277 30.6794C68.3569 30.6086 68.3008 30.5245 68.2626 30.432C68.2245 30.3395 68.2049 30.2404 68.2051 30.1403V23.169C68.2051 23.069 68.2248 22.9699 68.263 22.8775C68.3013 22.7851 68.3574 22.7011 68.4281 22.6303C68.4988 22.5596 68.5827 22.5035 68.6751 22.4652C68.7675 22.4269 68.8665 22.4072 68.9664 22.4072C69.0664 22.4072 69.1654 22.4269 69.2578 22.4652C69.3502 22.5035 69.4341 22.5596 69.5048 22.6303C69.5755 22.7011 69.6316 22.7851 69.6698 22.8775C69.7081 22.9699 69.7278 23.069 69.7278 23.169V29.4406H72.8078C73.0017 29.4406 73.1877 29.5176 73.3248 29.6548C73.4619 29.792 73.5389 29.978 73.5389 30.172Z" fill="white"/>
<path d="M81.7525 30.8457C81.5663 30.9238 81.3569 30.9251 81.1697 30.8494C80.9826 30.7738 80.8329 30.6273 80.7532 30.4418L80.1 28.9009H76.7834L76.1302 30.4432C76.0457 30.6208 75.8959 30.7589 75.712 30.8287C75.5282 30.8985 75.3245 30.8945 75.1435 30.8176C74.9625 30.7408 74.8181 30.5969 74.7406 30.4161C74.663 30.2354 74.6582 30.0316 74.7272 29.8473L77.7395 22.7462C77.7982 22.6087 77.8959 22.4914 78.0206 22.409C78.1454 22.3266 78.2915 22.2827 78.441 22.2827C78.5904 22.2827 78.7366 22.3266 78.8613 22.409C78.986 22.4914 79.0838 22.6087 79.1425 22.7462L82.1533 29.8473C82.2322 30.033 82.2343 30.2423 82.1592 30.4295C82.084 30.6166 81.9378 30.7663 81.7525 30.8457ZM79.4799 27.4394L78.4446 24.9954L77.4078 27.4394H79.4799Z" fill="white"/>
<path d="M66.0163 28.4592C66.0042 28.8123 65.9202 29.1593 65.7695 29.4788C65.6187 29.7983 65.4044 30.0837 65.1396 30.3175C64.5991 30.8178 63.8859 31.0893 63.1497 31.0749C62.5263 31.0838 61.9107 30.9349 61.3602 30.6421C61.064 30.4933 60.803 30.2828 60.5949 30.0247C60.3867 29.7667 60.2361 29.467 60.1533 29.146C60.1285 29.0548 60.1222 28.9595 60.1348 28.8658C60.1475 28.7722 60.1787 28.682 60.2268 28.6006C60.274 28.5184 60.3375 28.4467 60.4134 28.3899C60.4893 28.3331 60.5759 28.2924 60.6681 28.2702C60.7592 28.2454 60.8544 28.2391 60.948 28.2518C61.0417 28.2644 61.1318 28.2957 61.2131 28.3438C61.2955 28.391 61.3674 28.4544 61.4244 28.5303C61.4814 28.6062 61.5224 28.693 61.5448 28.7853C61.5902 28.9306 61.6677 29.0639 61.7716 29.1753C61.8754 29.2866 62.0029 29.3733 62.1446 29.4287C62.4625 29.5684 62.8069 29.6373 63.154 29.6307C63.5166 29.6384 63.8688 29.5091 64.1403 29.2686C64.2708 29.1616 64.377 29.0281 64.4519 28.8768C64.5267 28.7256 64.5685 28.5601 64.5744 28.3914C64.5782 28.2859 64.5601 28.1807 64.5211 28.0826C64.4822 27.9845 64.4232 27.8956 64.348 27.8215C64.0942 27.5517 63.6702 27.4132 63.0733 27.4046H63.043C62.0423 27.3882 61.2761 27.0997 60.7445 26.5389C60.535 26.3257 60.3724 26.0711 60.2668 25.7913C60.1613 25.5116 60.1153 25.2129 60.1316 24.9144C60.143 24.5603 60.2266 24.2123 60.3774 23.8917C60.5281 23.5711 60.7429 23.2848 61.0084 23.0504C61.5464 22.5486 62.2585 22.2759 62.994 22.2901C63.6175 22.2804 64.2332 22.4293 64.7834 22.7229C65.0796 22.8717 65.3406 23.0822 65.5488 23.3402C65.7569 23.5983 65.9075 23.8979 65.9904 24.219C66.0149 24.3105 66.0205 24.4061 66.0069 24.4999C65.9932 24.5936 65.9606 24.6836 65.9111 24.7644C65.8658 24.8465 65.804 24.9182 65.7295 24.9751C65.655 25.032 65.5695 25.0727 65.4785 25.0948C65.3873 25.1196 65.2921 25.1258 65.1985 25.1132C65.1049 25.1006 65.0147 25.0693 64.9334 25.0212C64.851 24.974 64.7791 24.9105 64.7221 24.8346C64.6651 24.7587 64.6241 24.672 64.6018 24.5797C64.5554 24.4337 64.4768 24.3 64.3717 24.1886C64.2666 24.0772 64.1377 23.9909 63.9947 23.9362C63.681 23.7962 63.3403 23.7272 62.9968 23.7343C62.6321 23.7267 62.2777 23.8559 62.0033 24.0964C61.8739 24.2051 61.7685 24.3397 61.694 24.4915C61.6195 24.6432 61.5775 24.8089 61.5707 24.9779C61.5671 25.0845 61.5853 25.1906 61.6242 25.2899C61.6631 25.3891 61.722 25.4794 61.7971 25.555C62.0509 25.8205 62.4748 25.9575 63.0718 25.9662H63.1021C64.1028 25.9825 64.869 26.2711 65.4006 26.8318C65.6115 27.0448 65.7752 27.2997 65.8813 27.5801C65.9874 27.8604 66.0334 28.1599 66.0163 28.4592Z" fill="white"/>
<path d="M89.3357 28.4592C89.3236 28.8123 89.2396 29.1593 89.0888 29.4788C88.9381 29.7983 88.7237 30.0837 88.4589 30.3175C87.9195 30.8168 87.2081 31.0882 86.4734 31.0749C85.8499 31.0838 85.2344 30.935 84.6839 30.6421C84.3877 30.4933 84.1267 30.2828 83.9185 30.0247C83.7104 29.7667 83.5598 29.4671 83.4769 29.146C83.4521 29.0548 83.4459 28.9595 83.4585 28.8658C83.4711 28.7722 83.5024 28.682 83.5505 28.6006C83.5977 28.5184 83.6612 28.4467 83.737 28.3899C83.8129 28.3331 83.8996 28.2924 83.9917 28.2702C84.0829 28.2454 84.1781 28.2391 84.2717 28.2518C84.3653 28.2644 84.4555 28.2957 84.5368 28.3438C84.6192 28.391 84.6911 28.4544 84.7481 28.5303C84.8051 28.6062 84.8461 28.693 84.8684 28.7853C84.9139 28.9306 84.9914 29.0639 85.0952 29.1753C85.199 29.2866 85.3265 29.3733 85.4683 29.4287C85.7862 29.5684 86.1306 29.6373 86.4777 29.6307C86.8403 29.6384 87.1924 29.5091 87.464 29.2686C87.5965 29.1617 87.7045 29.0275 87.7807 28.8752C87.8568 28.7228 87.8993 28.5559 87.9052 28.3856C87.9095 28.2801 87.8915 28.1748 87.8525 28.0767C87.8135 27.9785 87.7543 27.8896 87.6788 27.8158C87.425 27.546 87.0011 27.4075 86.4041 27.3988H86.3739C85.3731 27.3825 84.607 27.0939 84.0754 26.5332C83.8668 26.3208 83.7047 26.0674 83.5995 25.7889C83.4942 25.5105 83.4481 25.2131 83.464 24.9159C83.4738 24.5626 83.5556 24.2151 83.7044 23.8946C83.8532 23.5741 84.0658 23.2873 84.3291 23.0518C84.8674 22.5503 85.5794 22.2776 86.3147 22.2915C86.9382 22.2818 87.554 22.4308 88.1042 22.7243C88.4004 22.8731 88.6614 23.0836 88.8696 23.3417C89.0777 23.5997 89.2283 23.8994 89.3111 24.2205C89.336 24.3119 89.3418 24.4076 89.3282 24.5014C89.3145 24.5952 89.2817 24.6852 89.2318 24.7658C89.1866 24.8479 89.1248 24.9197 89.0503 24.9766C88.9758 25.0335 88.8903 25.0742 88.7993 25.0962C88.7081 25.121 88.6129 25.1273 88.5193 25.1147C88.4256 25.102 88.3355 25.0707 88.2542 25.0226C88.1718 24.9755 88.0999 24.912 88.0429 24.8361C87.9859 24.7602 87.9449 24.6734 87.9225 24.5811C87.8763 24.4353 87.7978 24.3018 87.693 24.1904C87.5882 24.079 87.4596 23.9926 87.3169 23.9377C87.0027 23.7978 86.6615 23.7288 86.3176 23.7357C85.9529 23.7282 85.5985 23.8573 85.3241 24.0978C85.1946 24.2065 85.0893 24.3411 85.0148 24.4929C84.9403 24.6447 84.8983 24.8104 84.8915 24.9793C84.8878 25.0859 84.906 25.1921 84.945 25.2913C84.9839 25.3906 85.0428 25.4808 85.1179 25.5564C85.3717 25.8219 85.7956 25.959 86.3926 25.9676H86.4229C87.4236 25.984 88.1898 26.2725 88.7214 26.8333C88.9316 27.046 89.0947 27.3005 89.2003 27.5804C89.3059 27.8602 89.3515 28.1591 89.3342 28.4578" fill="white"/>
</svg>