<svg width="243" height="56" viewBox="0 0 243 56" fill="none" xmlns="http://www.w3.org/2000/svg">
<path d="M81.469 1H1V55H81.469V1Z" stroke="white"/>
<path d="M20.5594 28.2285L18.4463 26.7551L21.0191 26.6225L21.8718 23.9998L22.9988 26.5562L25.5716 26.4162L23.6142 28.1622L24.5336 30.6522L22.2054 29.282L19.9069 30.9174L20.5668 28.2285H20.5594ZM22.7912 37.8645L20.7448 36.3911L23.3176 36.2659L24.1109 33.6432L25.2972 36.1996L27.8033 36.067L25.8385 37.7319L26.7653 40.2882L24.4446 38.9401L22.1313 40.5534L22.7912 37.8645ZM29.5457 44.9442L27.5067 43.4708L30.0573 43.3603L30.91 40.7376L32.0296 43.2277L34.6024 43.1024L32.5634 44.8705L33.5495 47.4268L31.1769 45.9534L28.9526 47.5889L29.5457 44.9442ZM39.0214 47.7805L36.9602 46.3071L39.533 46.1745L40.3931 43.5518L41.5126 46.0419L44.0855 45.9092L42.0465 47.6773L43.0326 50.2337L40.6674 48.8118L38.4431 50.4473L39.0214 47.7805ZM48.8233 45.4672L46.7769 43.9938L49.3497 43.9275L50.2098 41.3122L51.3294 43.8023L53.9022 43.6697L51.7891 45.4009L52.7752 47.891L50.4026 46.5133L48.1782 48.1562L48.8233 45.4672ZM56.0746 38.6528L54.0357 37.1794L56.6085 37.0468L57.4611 34.4241L58.5807 36.9142L61.1535 36.7889L59.1146 38.557L60.0636 41.1502L57.7206 39.6768L55.4073 41.3196L56.0746 38.6528ZM58.9811 29.4146L56.9347 27.9412L59.5075 27.8086L60.3676 25.1859L61.4279 27.7054L64.0007 27.5728L61.9543 29.282L62.9404 31.8383L60.5678 30.4607L58.3434 32.0961L58.9811 29.4146ZM56.5047 19.6459L55.9115 22.3349L58.2174 20.6921L60.5233 22.0697L59.5372 19.5133L61.6429 17.7453L59.0107 17.8779L57.8838 15.3657L57.0978 17.9884L54.4583 18.1136L56.5047 19.6459ZM49.7723 12.6989L47.7334 11.2255L50.3062 11.1223L51.1663 8.50707L52.2858 10.9971L54.8587 10.8645L52.8123 12.6326L53.8058 15.1889L51.4332 13.8113L49.2088 15.3878L49.7723 12.6989ZM40.5414 9.81839L38.495 8.34499L41.0678 8.14608L41.8611 5.52344L43.0474 8.07978L45.5535 7.99874L43.5739 9.77419L44.5007 12.2642L42.1874 10.8866L39.8815 12.5221L40.5414 9.81839ZM30.8433 12.0285L28.8043 10.5551L31.3697 10.4298L32.2298 7.8514L33.3493 10.3414L35.9221 10.2088L33.8758 11.9769L34.8026 14.467L32.5115 13.0893L30.1982 14.7322L30.8433 12.0285ZM23.5919 18.6588L21.5455 17.1854L24.1183 17.0528L24.9784 14.4301L26.098 16.9865L28.6708 16.8391L26.6244 18.6146L27.6105 21.1709L25.2379 19.7859L23.0136 21.3551L23.5919 18.6588Z" fill="white"/>
<path d="M89.4693 8.46289H91.5824V14.5333C91.5525 15.0364 91.6361 15.5398 91.8271 16.0067C92.0148 16.2639 92.2612 16.4732 92.546 16.6175C92.8308 16.7619 93.146 16.8371 93.4657 16.8371C93.7854 16.8371 94.1006 16.7619 94.3854 16.6175C94.6702 16.4732 94.9166 16.2639 95.1043 16.0067C95.2886 15.5381 95.3695 15.0356 95.3416 14.5333V8.46289H97.4547V14.5407C97.4991 15.3861 97.3309 16.2292 96.9653 16.9939C96.3573 18.0694 95.1859 18.6072 93.4657 18.6072C91.7456 18.6072 90.5815 18.0694 89.9661 16.9939C89.594 16.2311 89.4231 15.387 89.4693 14.5407V8.46289Z" fill="white"/>
<path d="M99.4194 8.46289H101.599L105.551 15.3658V8.46289H107.486V18.3494H105.41L101.362 11.336V18.3494H99.4194V8.46289Z" fill="white"/>
<path d="M111.334 18.3494H109.273V8.46289H111.334V18.3494Z" fill="white"/>
<path d="M120.944 17.4726C120.02 18.2142 118.869 18.6187 117.681 18.6187C116.494 18.6187 115.342 18.2142 114.419 17.4726C113.898 16.9333 113.497 16.2914 113.242 15.5883C112.986 14.8853 112.882 14.1368 112.936 13.3913C112.875 12.6464 112.977 11.8972 113.232 11.1944C113.488 10.4916 113.893 9.85147 114.419 9.31736C115.342 8.57578 116.494 8.17125 117.681 8.17125C118.869 8.17125 120.02 8.57578 120.944 9.31736C121.469 9.85231 121.872 10.4925 122.128 11.1951C122.384 11.8977 122.486 12.6465 122.426 13.3913C122.479 14.1367 122.374 14.8848 122.119 15.5876C121.864 16.2904 121.463 16.9325 120.944 17.4726ZM119.646 15.9992C120.18 15.2477 120.441 14.3388 120.388 13.4208C120.44 12.5051 120.178 11.5989 119.646 10.8497C119.404 10.5657 119.102 10.3375 118.762 10.181C118.422 10.0244 118.052 9.94337 117.678 9.94337C117.303 9.94337 116.933 10.0244 116.593 10.181C116.253 10.3375 115.951 10.5657 115.709 10.8497C115.172 11.5968 114.911 12.5046 114.968 13.4208C114.911 14.3392 115.172 15.2493 115.709 15.9992C115.951 16.2832 116.253 16.5114 116.593 16.6679C116.933 16.8245 117.303 16.9055 117.678 16.9055C118.052 16.9055 118.422 16.8245 118.762 16.6679C119.102 16.5114 119.404 16.2832 119.646 15.9992ZM120.002 5.36865L117.948 7.37247H116.554L117.852 5.36865H120.002Z" fill="white"/>
<path d="M123.998 8.46289H126.178L130.13 15.3658V8.46289H132.065V18.3494H129.989L125.934 11.336V18.3494H123.991L123.998 8.46289Z" fill="white"/>
<path d="M145.211 10.2089H139.947V12.3085H144.781V14.025H139.947V16.5666H145.456V18.342H137.923V8.46289H145.211V10.2089Z" fill="white"/>
<path d="M147.079 8.46289H149.193V14.5333C149.163 15.0364 149.246 15.5398 149.437 16.0067C149.625 16.2639 149.871 16.4732 150.156 16.6175C150.441 16.7619 150.756 16.8371 151.076 16.8371C151.396 16.8371 151.711 16.7619 151.996 16.6175C152.28 16.4732 152.527 16.2639 152.714 16.0067C152.899 15.5381 152.98 15.0356 152.952 14.5333V8.46289H155.065V14.5407C155.109 15.3861 154.941 16.2292 154.575 16.9939C153.967 18.0694 152.796 18.6072 151.076 18.6072C149.356 18.6072 148.192 18.0694 147.576 16.9939C147.204 16.2311 147.033 15.387 147.079 14.5407V8.46289Z" fill="white"/>
<path d="M163.443 8.73514C163.806 8.88834 164.126 9.12583 164.377 9.42764C164.583 9.67648 164.751 9.9546 164.874 10.2527C165.003 10.5862 165.066 10.9415 165.059 11.2989C165.055 11.7823 164.933 12.2574 164.703 12.6838C164.451 13.1464 164.024 13.4908 163.517 13.6416C163.918 13.7822 164.26 14.0519 164.488 14.4077C164.711 14.892 164.811 15.4233 164.778 15.9548V16.6178C164.766 16.9257 164.784 17.234 164.829 17.5387C164.85 17.655 164.894 17.7657 164.961 17.8635C165.027 17.9613 165.114 18.0439 165.215 18.1059V18.3491H162.917C162.857 18.128 162.813 17.9586 162.783 17.8186C162.731 17.539 162.701 17.2557 162.694 16.9714V16.0506C162.741 15.6053 162.625 15.1582 162.368 14.7908C162.028 14.5384 161.603 14.4251 161.182 14.474H159.15V18.3491H157.118V8.46257H161.878C162.412 8.45798 162.943 8.55035 163.443 8.73514ZM159.143 10.2085V12.868H161.367C161.708 12.8877 162.05 12.8324 162.368 12.7059C162.568 12.601 162.731 12.4388 162.837 12.2404C162.942 12.042 162.986 11.8167 162.961 11.5935C162.99 11.3592 162.952 11.1214 162.851 10.9076C162.75 10.6938 162.59 10.5128 162.39 10.3853C162.088 10.2497 161.757 10.189 161.426 10.2085H159.143Z" fill="white"/>
<path d="M174.713 17.4727C173.79 18.2143 172.638 18.6189 171.451 18.6189C170.264 18.6189 169.112 18.2143 168.189 17.4727C167.668 16.9334 167.267 16.2915 167.011 15.5885C166.756 14.8854 166.652 14.137 166.706 13.3914C166.645 12.6465 166.746 11.8973 167.002 11.1945C167.258 10.4917 167.663 9.85161 168.189 9.3175C169.112 8.57592 170.264 8.17139 171.451 8.17139C172.638 8.17139 173.79 8.57592 174.713 9.3175C175.238 9.85245 175.642 10.4927 175.898 11.1952C176.154 11.8978 176.255 12.6466 176.196 13.3914C176.249 14.1368 176.144 14.8849 175.889 15.5878C175.633 16.2906 175.233 16.9326 174.713 17.4727ZM173.416 15.9994C173.949 15.2479 174.211 14.339 174.157 13.4209C174.21 12.5053 173.948 11.599 173.416 10.8498C173.174 10.5658 172.872 10.3376 172.532 10.1811C172.192 10.0246 171.822 9.9435 171.447 9.9435C171.073 9.9435 170.702 10.0246 170.363 10.1811C170.023 10.3376 169.721 10.5658 169.479 10.8498C168.942 11.5969 168.68 12.5047 168.737 13.4209C168.68 14.3394 168.942 15.2494 169.479 15.9994C169.721 16.2834 170.023 16.5116 170.363 16.6681C170.702 16.8246 171.073 16.9057 171.447 16.9057C171.822 16.9057 172.192 16.8246 172.532 16.6681C172.872 16.5116 173.174 16.2834 173.416 15.9994Z" fill="white"/>
<path d="M184.508 14.0691C183.789 14.6005 182.903 14.8615 182.009 14.8058H179.94V18.3567H177.835V8.4628H182.105C182.956 8.4118 183.795 8.67409 184.463 9.19949C184.777 9.50423 185.019 9.87442 185.172 10.2834C185.324 10.6923 185.384 11.1298 185.346 11.5643C185.402 12.0174 185.356 12.4774 185.211 12.9106C185.066 13.3439 184.826 13.7397 184.508 14.0691ZM182.921 10.5108C182.604 10.2732 182.212 10.1557 181.816 10.1793H179.94V13.0893H181.816C182.216 13.1135 182.611 12.9873 182.921 12.7356C183.062 12.5854 183.17 12.4075 183.237 12.2134C183.305 12.0192 183.331 11.8132 183.314 11.6085C183.331 11.4064 183.302 11.2031 183.231 11.0133C183.159 10.8235 183.045 10.6519 182.899 10.5108H182.921Z" fill="white"/>
<path d="M194.384 10.2089H189.119V12.3085H193.954V14.025H189.119V16.5666H194.628V18.342H187.088V8.46289H194.384V10.2089Z" fill="white"/>
<path d="M199.092 8.46289H201.442L204.964 18.3494H202.74L202.087 16.3161H198.417L197.742 18.3494H195.57L199.092 8.46289ZM198.958 14.6291H201.502L200.249 10.7393L198.958 14.6291Z" fill="white"/>
<path d="M89.1803 28.3608H93.6289V29.1417H90.0478V31.0793H93.1915V31.816H90.0478V34.7112H89.1729L89.1803 28.3608Z" fill="white"/>
<path d="M97.8475 30.5489C98.0725 30.7818 98.2466 31.0585 98.3589 31.3615C98.4712 31.6645 98.5192 31.9873 98.5 32.3096C98.5258 32.9713 98.3331 33.6233 97.9513 34.1661C97.7514 34.4166 97.4928 34.6146 97.1982 34.7431C96.9035 34.8715 96.5817 34.9263 96.2608 34.9028C95.9737 34.9147 95.6875 34.8626 95.4232 34.7504C95.159 34.6383 94.9233 34.4688 94.7334 34.2545C94.3366 33.7607 94.1361 33.1394 94.1699 32.5085C94.1358 31.8366 94.3464 31.1749 94.7631 30.6447C94.9593 30.4156 95.2056 30.2342 95.4832 30.1142C95.7607 29.9942 96.0622 29.9388 96.3646 29.9522C96.6392 29.9496 96.9115 30.001 97.166 30.1035C97.4205 30.2059 97.6521 30.3572 97.8475 30.5489ZM97.3656 33.643C97.5553 33.2318 97.6515 32.7841 97.6473 32.3317C97.6639 31.9691 97.5927 31.6078 97.4397 31.2782C97.338 31.0716 97.1762 30.9 96.9753 30.7858C96.7743 30.6715 96.5435 30.6198 96.3127 30.6373C96.1056 30.622 95.8984 30.6651 95.7148 30.7615C95.5312 30.8579 95.3786 31.0038 95.2747 31.1824C95.0483 31.5847 94.9356 32.0404 94.9484 32.5011C94.9335 32.9341 95.0469 33.362 95.2747 33.7314C95.3859 33.8965 95.5392 34.0291 95.719 34.1159C95.8988 34.2026 96.0986 34.2403 96.2979 34.225C96.5142 34.2466 96.732 34.2026 96.9226 34.0987C97.1133 33.9948 97.2677 33.8359 97.3656 33.643Z" fill="white"/>
<path d="M99.4341 30.0997H100.176V30.7627C100.364 30.5177 100.605 30.3165 100.88 30.1733C101.137 30.0527 101.419 29.9922 101.703 29.9965C101.972 29.9661 102.243 30.0156 102.484 30.1389C102.724 30.2622 102.922 30.4537 103.052 30.689C103.197 31.0287 103.263 31.3963 103.245 31.7646V34.7114H102.444V31.7646C102.453 31.5298 102.41 31.2959 102.318 31.0795C102.256 30.9394 102.15 30.8222 102.018 30.7443C101.885 30.6664 101.731 30.6316 101.577 30.6448C101.422 30.6398 101.267 30.6572 101.117 30.6964C100.916 30.7639 100.735 30.879 100.589 31.0318C100.443 31.1845 100.337 31.3703 100.279 31.5731C100.232 31.8156 100.212 32.0628 100.22 32.3098V34.7409H99.4341V30.0997Z" fill="white"/>
<path d="M106.982 30.2322C107.166 30.3558 107.327 30.5104 107.457 30.6889V28.3389H108.198V34.7334H107.494V34.0925C107.335 34.3523 107.11 34.5658 106.841 34.7113C106.574 34.8419 106.279 34.9075 105.981 34.9028C105.722 34.901 105.467 34.841 105.235 34.7275C105.002 34.614 104.799 34.4498 104.639 34.2472C104.238 33.7585 104.034 33.1385 104.068 32.5086C104.052 31.8823 104.234 31.2667 104.587 30.7479C104.751 30.5099 104.973 30.3173 105.233 30.1884C105.492 30.0595 105.78 29.9985 106.07 30.0112C106.39 29.9936 106.707 30.0705 106.982 30.2322ZM105.225 33.7168C105.335 33.8832 105.488 34.0173 105.668 34.1054C105.848 34.1934 106.048 34.2322 106.248 34.2177C106.423 34.2189 106.596 34.1771 106.751 34.0962C106.907 34.0152 107.039 33.8976 107.138 33.7536C107.396 33.3553 107.518 32.8853 107.486 32.4128C107.524 31.9503 107.398 31.4892 107.131 31.1089C107.022 30.9763 106.886 30.8698 106.73 30.7971C106.575 30.7244 106.405 30.6874 106.233 30.6889C106.05 30.6834 105.867 30.7213 105.701 30.7994C105.535 30.8775 105.389 30.9937 105.277 31.1383C105.008 31.5266 104.88 31.9942 104.914 32.4644C104.898 32.9025 105.006 33.3362 105.225 33.7168Z" fill="white"/>
<path d="M112.78 30.5489C112.999 30.7847 113.167 31.0627 113.273 31.3656C113.378 31.6685 113.42 31.9898 113.396 32.3096C113.424 32.9705 113.234 33.6226 112.855 34.1661C112.653 34.4167 112.393 34.6147 112.097 34.7431C111.801 34.8714 111.479 34.9262 111.157 34.9028C110.877 34.9091 110.599 34.8543 110.343 34.7423C110.086 34.6303 109.858 34.4638 109.674 34.2545C109.277 33.7607 109.076 33.1394 109.11 32.5085C109.073 31.8361 109.284 31.1733 109.703 30.6446C109.898 30.4158 110.143 30.2344 110.419 30.1143C110.696 29.9943 110.996 29.9388 111.297 29.9521C111.852 29.9495 112.384 30.1639 112.78 30.5489ZM112.291 33.643C112.494 33.2277 112.595 32.771 112.588 32.3096C112.6 31.9473 112.529 31.5869 112.38 31.2561C112.276 31.0495 112.113 30.8783 111.911 30.7642C111.709 30.65 111.477 30.5982 111.246 30.6152C111.038 30.5999 110.831 30.643 110.648 30.7394C110.464 30.8358 110.312 30.9817 110.208 31.1603C109.983 31.5632 109.873 32.0189 109.889 32.479C109.872 32.9113 109.982 33.3391 110.208 33.7093C110.32 33.8744 110.475 34.0069 110.656 34.0936C110.837 34.1803 111.038 34.218 111.238 34.2029C111.45 34.2234 111.663 34.1812 111.85 34.0816C112.037 33.9819 112.191 33.8293 112.291 33.643Z" fill="white"/>
<path d="M117.036 28.3608H121.693V29.1417H117.889V31.0793H121.411V31.816H117.889V33.9745H121.759V34.7112H117.036V28.3608Z" fill="white"/>
<path d="M123.605 30.0996V33.1864C123.593 33.3906 123.629 33.5949 123.709 33.7831C123.774 33.9205 123.88 34.0345 124.013 34.1097C124.146 34.1848 124.299 34.2174 124.451 34.203C124.688 34.2153 124.924 34.15 125.12 34.0169C125.317 33.8839 125.465 33.6905 125.541 33.4663C125.658 33.1201 125.71 32.7557 125.696 32.3907V30.0996H126.482V34.7482H125.741V34.0631C125.642 34.2333 125.514 34.3853 125.363 34.5124C125.063 34.758 124.683 34.8864 124.295 34.8734C124.032 34.9027 123.766 34.8556 123.529 34.738C123.292 34.6203 123.095 34.4371 122.96 34.2104C122.816 33.9149 122.75 33.5879 122.768 33.26V30.0996H123.605Z" fill="white"/>
<path d="M127.817 30.0997H128.558V30.9027C128.664 30.6846 128.816 30.4912 129.003 30.3355C129.112 30.2275 129.242 30.142 129.384 30.0839C129.527 30.0257 129.679 29.9961 129.833 29.9966H129.908H130.086V30.8364H129.96H129.826C129.655 30.826 129.483 30.8551 129.325 30.9216C129.167 30.988 129.026 31.09 128.914 31.2195C128.704 31.4608 128.591 31.7701 128.595 32.0888V34.763H127.809L127.817 30.0997Z" fill="white"/>
<path d="M134.164 30.5489C134.383 30.7843 134.552 31.0621 134.659 31.3649C134.766 31.6678 134.81 31.9894 134.786 32.3096C134.812 32.9713 134.62 33.6233 134.238 34.1661C134.037 34.4171 133.777 34.6155 133.481 34.744C133.185 34.8724 132.862 34.9269 132.54 34.9028C132.26 34.9081 131.983 34.8529 131.726 34.7409C131.47 34.629 131.242 34.463 131.057 34.2545C130.66 33.7607 130.46 33.1394 130.493 32.5085C130.459 31.8366 130.67 31.1749 131.087 30.6446C131.281 30.4158 131.526 30.2344 131.803 30.1143C132.079 29.9943 132.379 29.9388 132.681 29.9521C133.235 29.9495 133.768 30.1639 134.164 30.5489ZM133.674 33.643C133.871 33.2338 133.97 32.7851 133.963 32.3317C133.98 31.9691 133.909 31.6078 133.756 31.2782C133.654 31.0703 133.491 30.898 133.288 30.7836C133.086 30.6692 132.853 30.6183 132.621 30.6373C132.415 30.6226 132.209 30.6659 132.027 30.7624C131.845 30.8588 131.694 31.0044 131.591 31.1824C131.361 31.5833 131.248 32.04 131.265 32.5011C131.245 32.9346 131.359 33.3636 131.591 33.7314C131.702 33.8964 131.855 34.0291 132.035 34.1159C132.215 34.2026 132.415 34.2403 132.614 34.225C132.829 34.2461 133.046 34.2018 133.235 34.0979C133.425 33.9939 133.578 33.8353 133.674 33.643Z" fill="white"/>
<path d="M135.684 30.0998H136.425V30.7186C136.564 30.5215 136.74 30.3537 136.944 30.225C137.223 30.0499 137.548 29.9602 137.878 29.9672C138.135 29.9637 138.39 30.016 138.624 30.1203C138.858 30.2246 139.067 30.3785 139.235 30.5713C139.634 31.0578 139.833 31.6763 139.791 32.3025C139.836 32.7078 139.786 33.1177 139.646 33.5008C139.506 33.884 139.279 34.2301 138.983 34.5126C138.652 34.7843 138.234 34.9305 137.804 34.9252C137.491 34.9357 137.181 34.8536 136.915 34.6894C136.734 34.5673 136.574 34.4182 136.44 34.2474V36.6196H135.654L135.684 30.0998ZM138.649 33.7833C138.921 33.3794 139.052 32.8978 139.02 32.413C139.025 32.0865 138.97 31.7619 138.857 31.4553C138.765 31.2344 138.609 31.0463 138.408 30.9154C138.206 30.7845 137.97 30.717 137.73 30.7218C137.489 30.7266 137.256 30.8034 137.06 30.9421C136.864 31.0809 136.715 31.2752 136.633 31.4995C136.513 31.8553 136.457 32.2295 136.47 32.6046C136.46 32.917 136.515 33.2281 136.633 33.5181C136.714 33.7079 136.844 33.8733 137.009 33.998C137.175 34.1227 137.37 34.2024 137.576 34.2292C137.782 34.256 137.991 34.2289 138.183 34.1507C138.376 34.0725 138.544 33.9459 138.672 33.7833H138.649Z" fill="white"/>
<path d="M143.617 30.2173C143.914 30.346 144.17 30.5522 144.358 30.814C144.52 31.0639 144.626 31.3452 144.67 31.6391C144.724 31.9777 144.746 32.3205 144.736 32.6631H141.333C141.328 33.0659 141.444 33.4612 141.667 33.7976C141.779 33.9431 141.926 34.0584 142.094 34.133C142.262 34.2077 142.447 34.2392 142.631 34.2249C142.814 34.2331 142.996 34.201 143.166 34.1309C143.335 34.0609 143.486 33.9546 143.609 33.8197C143.743 33.6603 143.842 33.4745 143.899 33.2746H144.64C144.608 33.4764 144.54 33.6709 144.44 33.8492C144.337 34.0388 144.207 34.2126 144.054 34.3649C143.809 34.5972 143.503 34.7577 143.172 34.829C142.964 34.882 142.749 34.9067 142.534 34.9027C142.256 34.9084 141.98 34.8548 141.724 34.7455C141.468 34.6362 141.239 34.4738 141.051 34.2691C140.838 34.0286 140.675 33.7486 140.57 33.4452C140.466 33.1418 140.423 32.821 140.443 32.501C140.415 31.841 140.631 31.1934 141.051 30.6814C141.247 30.4533 141.492 30.272 141.768 30.1508C142.044 30.0296 142.344 29.9718 142.646 29.9815C142.984 29.9821 143.317 30.0629 143.617 30.2173ZM143.899 32.0369C143.884 31.754 143.808 31.4775 143.676 31.2265C143.57 31.0422 143.413 30.8917 143.224 30.7926C143.035 30.6934 142.822 30.6498 142.609 30.6667C142.439 30.663 142.271 30.6953 142.115 30.7614C141.959 30.8274 141.819 30.9257 141.704 31.0497C141.457 31.32 141.319 31.6718 141.318 32.0369H143.899Z" fill="white"/>
<path d="M149.096 30.5491C149.314 30.7858 149.48 31.064 149.586 31.3667C149.692 31.6693 149.735 31.9902 149.712 32.3098C149.74 32.9707 149.55 33.6228 149.171 34.1663C148.969 34.4164 148.709 34.6141 148.413 34.7424C148.117 34.8707 147.795 34.9258 147.473 34.903C147.186 34.9149 146.899 34.8628 146.635 34.7506C146.371 34.6385 146.135 34.469 145.945 34.2547C145.552 33.7593 145.351 33.1392 145.382 32.5087C145.348 31.8368 145.558 31.1751 145.975 30.6448C146.172 30.4167 146.418 30.2358 146.696 30.1159C146.973 29.996 147.274 29.94 147.576 29.9524C147.857 29.9461 148.136 29.9957 148.397 30.0982C148.658 30.2007 148.896 30.354 149.096 30.5491ZM148.607 33.6432C148.815 33.2292 148.921 32.7724 148.918 32.3098C148.935 31.9472 148.864 31.5859 148.711 31.2563C148.609 31.0497 148.447 30.8781 148.246 30.7639C148.045 30.6496 147.815 30.5979 147.584 30.6154C147.377 30.6001 147.17 30.6432 146.986 30.7396C146.802 30.836 146.65 30.9819 146.546 31.1605C146.319 31.5628 146.207 32.0185 146.22 32.4792C146.205 32.9122 146.318 33.3401 146.546 33.7095C146.658 33.8757 146.812 34.0091 146.993 34.0959C147.175 34.1827 147.376 34.2197 147.576 34.2031C147.784 34.2192 147.993 34.1748 148.175 34.0754C148.358 33.976 148.508 33.8258 148.607 33.6432Z" fill="white"/>
<path d="M155.732 30.2322C155.917 30.3538 156.078 30.5087 156.207 30.6889V28.3389H156.948V34.7334H156.244V34.0925C156.085 34.3523 155.86 34.5658 155.591 34.7113C155.326 34.8418 155.034 34.9075 154.739 34.9028C154.479 34.901 154.222 34.8411 153.989 34.7276C153.755 34.6142 153.55 34.45 153.389 34.2472C152.991 33.7568 152.788 33.1381 152.818 32.5086C152.802 31.8823 152.984 31.2667 153.337 30.7479C153.501 30.5104 153.724 30.3182 153.983 30.1894C154.242 30.0605 154.53 29.9992 154.82 30.0112C155.14 29.9918 155.457 30.0688 155.732 30.2322ZM153.982 33.7168C154.091 33.8831 154.242 34.0174 154.421 34.1055C154.6 34.1937 154.799 34.2324 154.998 34.2177C155.173 34.2195 155.346 34.178 155.502 34.097C155.657 34.016 155.79 33.898 155.888 33.7536C156.148 33.3562 156.273 32.8861 156.244 32.4128C156.279 31.9494 156.151 31.4882 155.88 31.1089C155.773 30.9769 155.638 30.8706 155.484 30.7979C155.33 30.7252 155.161 30.688 154.991 30.6889C154.806 30.6846 154.623 30.723 154.455 30.8009C154.288 30.8789 154.141 30.9944 154.027 31.1383C153.758 31.5266 153.63 31.9942 153.663 32.4644C153.647 32.9036 153.757 33.3383 153.982 33.7168Z" fill="white"/>
<path d="M161.033 30.2175C161.317 30.3509 161.56 30.5569 161.738 30.8143C161.899 31.0642 162.006 31.3455 162.049 31.6394C162.11 31.9771 162.135 32.3204 162.123 32.6634H158.72C158.714 33.0662 158.831 33.4615 159.054 33.7979C159.166 33.9434 159.313 34.0587 159.481 34.1333C159.649 34.2079 159.834 34.2395 160.018 34.2252C160.201 34.2333 160.383 34.2013 160.553 34.1312C160.722 34.0612 160.873 33.9549 160.996 33.82C161.13 33.6606 161.229 33.4748 161.286 33.2748H162.027C161.995 33.4778 161.925 33.6729 161.819 33.8495C161.722 34.0401 161.594 34.2142 161.441 34.3651C161.196 34.5974 160.89 34.758 160.559 34.8293C160.351 34.8817 160.136 34.9065 159.921 34.9029C159.643 34.9072 159.367 34.853 159.112 34.7438C158.856 34.6346 158.627 34.4729 158.438 34.2694C158.013 33.7808 157.797 33.146 157.838 32.5013C157.806 31.8407 158.022 31.192 158.446 30.6817C158.641 30.4546 158.885 30.2738 159.159 30.1527C159.434 30.0316 159.732 29.9732 160.032 29.9818C160.381 29.9779 160.724 30.0588 161.033 30.2175ZM161.315 32.0372C161.294 31.7554 161.218 31.4803 161.093 31.2268C160.987 31.0425 160.83 30.892 160.641 30.7928C160.452 30.6937 160.238 30.65 160.025 30.6669C159.855 30.6628 159.687 30.6949 159.531 30.761C159.375 30.827 159.235 30.9256 159.121 31.05C158.873 31.3202 158.736 31.672 158.735 32.0372H161.315Z" fill="white"/>
<path d="M165.749 28.3612H168.315C168.702 28.3425 169.089 28.4172 169.441 28.5788C169.794 28.7404 170.102 28.9842 170.339 29.2895C170.789 29.918 171.016 30.6773 170.984 31.448C170.995 32.0804 170.863 32.7072 170.598 33.2824C170.421 33.7363 170.104 34.123 169.693 34.3876C169.281 34.6521 168.797 34.781 168.307 34.7558H165.749V28.3612ZM168.144 33.997C168.382 34.0029 168.62 33.9731 168.849 33.9086C169.187 33.7877 169.474 33.5566 169.664 33.2529C169.848 32.95 169.971 32.6148 170.027 32.2657C170.068 32.0445 170.088 31.8201 170.087 31.5953C170.127 30.9492 169.966 30.3064 169.627 29.7536C169.454 29.5305 169.228 29.3537 168.969 29.2392C168.71 29.1247 168.427 29.0762 168.144 29.0979H166.661V33.997H168.144Z" fill="white"/>
<path d="M174.958 30.2175C175.24 30.353 175.483 30.5585 175.662 30.8143C175.824 31.0642 175.93 31.3455 175.973 31.6394C176.031 31.9776 176.055 32.3205 176.048 32.6634H172.644C172.639 33.0662 172.755 33.4615 172.978 33.7979C173.09 33.9434 173.237 34.0587 173.405 34.1333C173.574 34.2079 173.758 34.2395 173.942 34.2252C174.124 34.2343 174.306 34.2027 174.474 34.1325C174.642 34.0624 174.792 33.9556 174.913 33.82C175.053 33.6649 175.153 33.4775 175.202 33.2748H175.981C175.949 33.4778 175.879 33.6729 175.773 33.8495C175.673 34.0405 175.543 34.2146 175.388 34.3651C175.145 34.5972 174.842 34.7578 174.513 34.8293C174.304 34.8817 174.09 34.9065 173.875 34.9029C173.597 34.9072 173.321 34.853 173.065 34.7438C172.81 34.6346 172.58 34.4729 172.392 34.2694C171.967 33.7808 171.751 33.146 171.792 32.5013C171.76 31.8407 171.976 31.192 172.4 30.6817C172.595 30.4546 172.838 30.2738 173.113 30.1527C173.388 30.0316 173.686 29.9732 173.986 29.9818C174.324 29.9826 174.657 30.0634 174.958 30.2175ZM175.239 32.0372C175.218 31.7554 175.143 31.4803 175.017 31.2268C174.91 31.0419 174.751 30.8911 174.561 30.792C174.371 30.6929 174.156 30.6495 173.942 30.6669C173.773 30.6634 173.606 30.6957 173.451 30.7618C173.297 30.8279 173.158 30.9262 173.045 31.05C172.798 31.3202 172.66 31.672 172.659 32.0372H175.239Z" fill="white"/>
<path d="M177.508 33.2746C177.514 33.4911 177.584 33.7011 177.709 33.8787C177.844 34.0162 178.009 34.1215 178.192 34.1866C178.374 34.2517 178.569 34.2748 178.761 34.2544C179.036 34.2584 179.306 34.1925 179.547 34.0628C179.654 34.0082 179.743 33.9244 179.803 33.8213C179.864 33.7182 179.893 33.6001 179.888 33.4809C179.89 33.387 179.865 33.2946 179.816 33.214C179.768 33.1334 179.698 33.0676 179.614 33.0241C179.395 32.9268 179.166 32.8527 178.932 32.8031L178.294 32.6484C177.979 32.5869 177.676 32.4749 177.397 32.3169C177.24 32.2303 177.11 32.1031 177.019 31.9487C176.929 31.7944 176.883 31.6186 176.886 31.4402C176.878 31.2373 176.917 31.0353 177.001 30.85C177.084 30.6648 177.21 30.5012 177.367 30.372C177.739 30.0849 178.202 29.941 178.672 29.9668C178.96 29.9402 179.249 29.9817 179.518 30.088C179.786 30.1943 180.025 30.3624 180.215 30.5783C180.407 30.8189 180.509 31.1183 180.504 31.4255H179.762C179.747 31.2504 179.68 31.0836 179.57 30.9466C179.44 30.8308 179.287 30.7435 179.121 30.6902C178.955 30.6369 178.779 30.6188 178.606 30.6372C178.364 30.6219 178.123 30.6811 177.916 30.8066C177.843 30.8551 177.784 30.921 177.744 30.9983C177.704 31.0756 177.684 31.1617 177.686 31.2487C177.685 31.3501 177.713 31.4498 177.767 31.536C177.82 31.6222 177.898 31.6912 177.99 31.7349C178.154 31.8264 178.332 31.8911 178.517 31.9264L179.051 32.0517C179.453 32.1307 179.842 32.2645 180.207 32.4495C180.359 32.5535 180.481 32.6954 180.56 32.8609C180.64 33.0264 180.674 33.2097 180.659 33.3924C180.661 33.5937 180.619 33.793 180.538 33.9772C180.456 34.1613 180.336 34.3261 180.185 34.4607C179.769 34.7972 179.236 34.9585 178.702 34.91C178.436 34.9369 178.166 34.9089 177.911 34.8277C177.656 34.7466 177.42 34.6141 177.219 34.4386C176.921 34.1225 176.752 33.7076 176.745 33.2746H177.508Z" fill="white"/>
<path d="M184.026 31.919C184.1 31.916 184.173 31.8941 184.236 31.8554C184.3 31.8167 184.352 31.7625 184.389 31.698C184.426 31.6016 184.444 31.499 184.441 31.396C184.45 31.2821 184.428 31.1678 184.377 31.0654C184.326 30.9629 184.248 30.876 184.152 30.814C183.901 30.682 183.619 30.6209 183.336 30.6372C183.174 30.6192 183.01 30.64 182.858 30.6976C182.706 30.7553 182.57 30.8482 182.461 30.9687C182.351 31.1303 182.287 31.3188 182.276 31.5138H181.534C181.516 31.2823 181.558 31.0499 181.657 30.8394C181.755 30.6289 181.907 30.4475 182.098 30.313C182.47 30.0801 182.904 29.9622 183.344 29.9741C183.811 29.9538 184.275 30.0608 184.686 30.2835C184.851 30.3845 184.987 30.5283 185.077 30.6995C185.167 30.8708 185.208 31.0631 185.197 31.256V33.9376C185.194 34.0043 185.209 34.0707 185.242 34.1291C185.279 34.1807 185.346 34.2028 185.457 34.2028H185.575H185.716V34.7774C185.624 34.807 185.53 34.8292 185.434 34.8437H185.175C185.059 34.8525 184.943 34.8305 184.839 34.78C184.735 34.7295 184.646 34.6523 184.582 34.5564C184.509 34.4242 184.464 34.279 184.448 34.1291C184.259 34.3548 184.024 34.5381 183.759 34.6669C183.452 34.8242 183.111 34.9051 182.765 34.9026C182.373 34.9147 181.991 34.7717 181.705 34.5048C181.569 34.3808 181.461 34.2291 181.39 34.06C181.318 33.8909 181.284 33.7084 181.29 33.525C181.279 33.3384 181.31 33.1517 181.38 32.9784C181.451 32.8051 181.559 32.6496 181.698 32.5231C181.997 32.2726 182.368 32.1208 182.758 32.0885L184.026 31.919ZM182.365 34.0333C182.534 34.1639 182.744 34.2316 182.958 34.2249C183.236 34.2253 183.51 34.1623 183.759 34.0407C183.962 33.9543 184.133 33.8088 184.251 33.6233C184.369 33.4378 184.428 33.2211 184.419 33.002V32.3758C184.303 32.4431 184.178 32.4927 184.048 32.5231C183.903 32.5653 183.754 32.5948 183.603 32.6115L183.129 32.6704C182.904 32.6885 182.685 32.7485 182.484 32.8472C182.366 32.9105 182.269 33.0059 182.205 33.1221C182.141 33.2383 182.111 33.3705 182.12 33.5029C182.116 33.6042 182.137 33.7049 182.179 33.797C182.222 33.8891 182.285 33.9701 182.365 34.0333Z" fill="white"/>
<path d="M186.51 30.0998H187.251V30.9028C187.361 30.6846 187.515 30.4914 187.703 30.3355C187.811 30.2271 187.939 30.1412 188.08 30.083C188.221 30.0248 188.373 29.9954 188.526 29.9966H188.6H188.778V30.8365H188.652H188.526C188.354 30.8254 188.181 30.8542 188.021 30.9207C187.862 30.9872 187.72 31.0895 187.607 31.2195C187.402 31.4632 187.292 31.7715 187.295 32.0888V34.7631H186.51V30.0998Z" fill="white"/>
<path d="M189.49 30.0998H190.231V30.9028C190.341 30.6846 190.495 30.4914 190.684 30.3355C190.791 30.2271 190.919 30.1412 191.06 30.083C191.202 30.0248 191.354 29.9954 191.507 29.9966H191.581H191.759V30.8365H191.633H191.499C191.328 30.826 191.156 30.8551 190.998 30.9216C190.84 30.9881 190.699 31.09 190.587 31.2195C190.38 31.4625 190.267 31.7707 190.268 32.0888V34.7631H189.482L189.49 30.0998Z" fill="white"/>
<path d="M195.837 30.5491C196.056 30.7845 196.225 31.0623 196.332 31.3652C196.439 31.668 196.483 31.9896 196.46 32.3098C196.489 32.972 196.296 33.6252 195.911 34.1663C195.711 34.4168 195.452 34.6149 195.158 34.7433C194.863 34.8717 194.541 34.9265 194.22 34.903C193.933 34.9149 193.647 34.8628 193.383 34.7506C193.119 34.6385 192.883 34.469 192.693 34.2547C192.299 33.7593 192.099 33.1392 192.13 32.5087C192.095 31.8368 192.306 31.1751 192.723 30.6448C192.92 30.4167 193.166 30.2358 193.443 30.1159C193.721 29.996 194.022 29.94 194.324 29.9524C194.604 29.9459 194.882 29.9954 195.142 30.0979C195.401 30.2004 195.638 30.3539 195.837 30.5491ZM195.355 33.6432C195.545 33.2246 195.639 32.769 195.629 32.3098C195.646 31.9472 195.575 31.5859 195.422 31.2563C195.32 31.0497 195.158 30.8781 194.957 30.7639C194.756 30.6496 194.525 30.5979 194.295 30.6154C194.087 30.6001 193.88 30.6432 193.697 30.7396C193.513 30.836 193.361 30.9819 193.257 31.1605C193.03 31.5628 192.917 32.0185 192.93 32.4792C192.915 32.9122 193.029 33.3401 193.257 33.7095C193.368 33.8757 193.523 34.0091 193.704 34.0959C193.885 34.1827 194.087 34.2197 194.287 34.2031C194.501 34.2267 194.717 34.1859 194.908 34.0861C195.098 33.9863 195.254 33.832 195.355 33.6432Z" fill="white"/>
<path d="M197.446 28.3608H198.232V34.7333H197.446V28.3608Z" fill="white"/>
<path d="M199.433 28.3608H200.219V34.7333H199.433V28.3608Z" fill="white"/>
<path d="M204.794 30.5489C205.013 30.7843 205.182 31.0621 205.289 31.3649C205.396 31.6678 205.44 31.9894 205.416 32.3096C205.442 32.9713 205.25 33.6233 204.868 34.1661C204.666 34.4167 204.406 34.6147 204.11 34.7431C203.815 34.8714 203.492 34.9262 203.17 34.9028C202.884 34.9146 202.599 34.8625 202.336 34.7503C202.073 34.6381 201.838 34.4686 201.65 34.2545C201.253 33.7607 201.052 33.1394 201.086 32.5085C201.049 31.8361 201.26 31.1733 201.679 30.6446C201.874 30.4158 202.119 30.2344 202.396 30.1143C202.672 29.9943 202.972 29.9388 203.274 29.9521C203.554 29.9459 203.833 29.9955 204.094 30.098C204.355 30.2005 204.593 30.3538 204.794 30.5489ZM204.304 33.643C204.501 33.2338 204.6 32.7851 204.593 32.3317C204.606 31.9694 204.535 31.609 204.386 31.2782C204.282 31.0716 204.119 30.9004 203.917 30.7863C203.715 30.6721 203.483 30.6203 203.251 30.6373C203.044 30.622 202.837 30.6651 202.653 30.7615C202.47 30.8579 202.317 31.0038 202.213 31.1824C201.989 31.5853 201.879 32.041 201.894 32.5011C201.877 32.9334 201.988 33.3612 202.213 33.7314C202.326 33.8965 202.481 34.0291 202.662 34.1157C202.843 34.2024 203.044 34.2401 203.244 34.225C203.459 34.2461 203.676 34.2018 203.865 34.0979C204.055 33.9939 204.208 33.8353 204.304 33.643Z" fill="white"/>
<path d="M209.071 28.3612H211.993C212.399 28.3446 212.804 28.4176 213.179 28.5748C213.464 28.6971 213.703 28.905 213.863 29.1693C214.022 29.4336 214.094 29.741 214.069 30.0482C214.082 30.3763 213.999 30.7011 213.832 30.9838C213.663 31.2332 213.433 31.436 213.164 31.5732C213.384 31.654 213.579 31.7913 213.728 31.971C213.875 32.2126 213.95 32.4914 213.943 32.774V33.6286C213.944 33.8118 213.964 33.9944 214.002 34.1737C214.016 34.2559 214.049 34.3338 214.097 34.4015C214.146 34.4692 214.21 34.5248 214.284 34.5642V34.7042H213.216C213.182 34.6372 213.159 34.565 213.149 34.4905C213.119 34.3253 213.104 34.1576 213.105 33.9896L213.053 32.9287C213.065 32.7598 213.027 32.5911 212.946 32.4424C212.865 32.2937 212.742 32.1711 212.593 32.0889C212.358 31.997 212.105 31.9568 211.852 31.971H209.932V34.7042H209.057L209.071 28.3612ZM211.896 31.308C212.228 31.3264 212.557 31.2414 212.838 31.0649C212.964 30.9584 213.062 30.8227 213.123 30.6698C213.183 30.5169 213.205 30.3515 213.186 30.1882C213.205 30.0029 213.169 29.8161 213.082 29.651C212.995 29.486 212.861 29.35 212.697 29.26C212.481 29.1615 212.245 29.1161 212.008 29.1274H209.946V31.3375L211.896 31.308Z" fill="white"/>
<path d="M218.214 30.2173C218.511 30.346 218.767 30.5522 218.955 30.814C219.117 31.0639 219.223 31.3452 219.267 31.6391C219.32 31.9777 219.343 32.3204 219.333 32.6631H215.93C215.924 33.0659 216.041 33.4612 216.264 33.7976C216.377 33.9437 216.525 34.0593 216.695 34.1339C216.864 34.2085 217.05 34.2398 217.235 34.2249C217.417 34.234 217.599 34.2024 217.767 34.1322C217.935 34.0621 218.085 33.9553 218.206 33.8197C218.347 33.6646 218.446 33.4773 218.496 33.2746H219.274C219.242 33.4775 219.172 33.6726 219.066 33.8492C218.966 34.0402 218.836 34.2143 218.681 34.3649C218.436 34.5984 218.131 34.7592 217.799 34.829C217.593 34.8815 217.381 34.9062 217.168 34.9027C216.89 34.9084 216.614 34.8548 216.358 34.7455C216.102 34.6362 215.873 34.4738 215.685 34.2691C215.26 33.7805 215.044 33.1458 215.085 32.501C215.053 31.8405 215.27 31.1917 215.693 30.6814C215.887 30.4535 216.131 30.2721 216.406 30.1509C216.68 30.0297 216.979 29.9718 217.28 29.9815C217.605 29.987 217.925 30.0677 218.214 30.2173ZM218.496 32.0369C218.48 31.7551 218.406 31.4795 218.28 31.2265C218.173 31.0416 218.015 30.8908 217.825 30.7917C217.634 30.6926 217.42 30.6492 217.205 30.6666C217.037 30.6621 216.869 30.6941 216.714 30.7602C216.56 30.8263 216.421 30.9251 216.308 31.0497C216.061 31.3199 215.924 31.6717 215.923 32.0369H218.496Z" fill="white"/>
<path d="M222.9 30.2763C223.075 30.3962 223.228 30.5458 223.352 30.7183V30.0995H224.093V34.3282C224.117 34.8084 224.028 35.2876 223.834 35.7279C223.661 36.0597 223.392 36.3324 223.062 36.511C222.731 36.6896 222.355 36.7658 221.98 36.7298C221.534 36.7452 221.093 36.6299 220.712 36.3983C220.54 36.2798 220.398 36.1228 220.297 35.9398C220.197 35.7569 220.141 35.5531 220.134 35.3448H220.935C220.958 35.5232 221.036 35.6902 221.157 35.8237C221.314 35.9322 221.491 36.0086 221.678 36.0485C221.864 36.0884 222.057 36.0909 222.245 36.0559C222.433 36.021 222.611 35.9492 222.771 35.8448C222.93 35.7404 223.067 35.6055 223.174 35.4479C223.311 35.0199 223.361 34.5693 223.322 34.1219C223.184 34.3426 222.99 34.523 222.759 34.6449C222.394 34.8126 221.987 34.8678 221.591 34.8035C221.194 34.7391 220.826 34.5582 220.534 34.284C220.324 34.0413 220.166 33.7588 220.069 33.4536C219.973 33.1485 219.939 32.8269 219.971 32.5085C219.929 31.8528 220.132 31.2048 220.542 30.6889C220.708 30.4842 220.918 30.3191 221.157 30.2057C221.395 30.0922 221.656 30.0333 221.921 30.0332C222.265 30.0094 222.607 30.0946 222.9 30.2763ZM222.996 31.1088C222.886 30.977 222.748 30.8716 222.591 30.8002C222.434 30.7287 222.264 30.6932 222.091 30.6962C221.848 30.6814 221.606 30.745 221.401 30.8778C221.197 31.0105 221.041 31.2052 220.957 31.4329C220.842 31.7796 220.789 32.1437 220.801 32.5085C220.772 32.9327 220.884 33.3549 221.12 33.7093C221.22 33.8406 221.351 33.946 221.5 34.0165C221.65 34.087 221.815 34.1206 221.98 34.1145C222.23 34.1291 222.479 34.066 222.692 33.934C222.904 33.8021 223.07 33.6077 223.167 33.3778C223.297 33.0602 223.36 32.719 223.352 32.3759C223.384 31.9254 223.258 31.4778 222.996 31.1088Z" fill="white"/>
<path d="M225.287 28.3608H226.088V29.2449H225.287V28.3608ZM225.287 30.0994H226.088V34.7259H225.287V30.0994Z" fill="white"/>
<path d="M230.655 30.5489C230.875 30.7843 231.043 31.0621 231.15 31.3649C231.258 31.6678 231.301 31.9894 231.278 32.3096C231.304 32.9713 231.111 33.6233 230.729 34.1661C230.528 34.4171 230.268 34.6155 229.972 34.744C229.676 34.8724 229.353 34.9269 229.031 34.9028C228.745 34.9135 228.461 34.861 228.198 34.7488C227.935 34.6367 227.7 34.4678 227.511 34.2545C227.114 33.7607 226.914 33.1394 226.948 32.5085C226.914 31.8366 227.124 31.1749 227.541 30.6446C227.736 30.4158 227.981 30.2344 228.257 30.1143C228.533 29.9943 228.834 29.9388 229.135 29.9521C229.416 29.9459 229.695 29.9955 229.956 30.098C230.217 30.2005 230.454 30.3538 230.655 30.5489ZM230.166 33.643C230.373 33.229 230.48 32.7722 230.477 32.3096C230.494 31.947 230.422 31.5857 230.269 31.2561C230.167 31.0482 230.004 30.8759 229.802 30.7615C229.599 30.6471 229.367 30.5962 229.135 30.6152C228.929 30.6005 228.723 30.6438 228.541 30.7403C228.358 30.8367 228.207 30.9823 228.104 31.1603C227.874 31.5612 227.761 32.0179 227.778 32.479C227.759 32.9125 227.873 33.3415 228.104 33.7093C228.216 33.8743 228.369 34.007 228.549 34.0938C228.729 34.1805 228.928 34.2182 229.128 34.2029C229.337 34.2214 229.547 34.1782 229.732 34.0786C229.916 33.979 230.067 33.8275 230.166 33.643Z" fill="white"/>
<path d="M232.242 30.0997H232.983V30.7627C233.17 30.516 233.411 30.3145 233.687 30.1733C233.945 30.0527 234.226 29.9922 234.511 29.9965C234.779 29.9661 235.051 30.0156 235.291 30.1389C235.531 30.2622 235.729 30.4537 235.86 30.689C236.001 31.0294 236.065 31.3968 236.045 31.7646V34.7114H235.252V31.7646C235.261 31.5298 235.218 31.2959 235.126 31.0795C235.063 30.9394 234.958 30.8222 234.825 30.7443C234.692 30.6664 234.538 30.6316 234.384 30.6448C234.23 30.6398 234.075 30.6572 233.925 30.6964C233.703 30.7665 233.507 30.8997 233.361 31.0795C233.236 31.2149 233.146 31.3796 233.102 31.5583C233.054 31.8009 233.034 32.048 233.042 32.295V34.7261H232.257L232.242 30.0997Z" fill="white"/>
<path d="M239.723 31.9193C239.798 31.9185 239.871 31.8975 239.935 31.8586C239.999 31.8197 240.051 31.7643 240.086 31.6982C240.126 31.6028 240.144 31.4995 240.138 31.3962C240.148 31.283 240.127 31.1693 240.077 31.0669C240.028 30.9645 239.952 30.8772 239.856 30.8142C239.606 30.683 239.324 30.6219 239.041 30.6374C238.879 30.6189 238.715 30.6393 238.563 30.697C238.41 30.7547 238.274 30.848 238.166 30.9689C238.055 31.1305 237.991 31.319 237.981 31.5141H237.239C237.221 31.2834 237.262 31.0519 237.36 30.8418C237.457 30.6316 237.607 30.4496 237.795 30.3133C238.171 30.0822 238.606 29.9645 239.048 29.9744C239.515 29.9551 239.979 30.0621 240.39 30.2838C240.555 30.3857 240.688 30.5298 240.777 30.701C240.866 30.8722 240.906 31.064 240.894 31.2562V33.9378C240.893 34.0053 240.911 34.0719 240.946 34.1294C240.983 34.1809 241.05 34.203 241.161 34.203H241.28H241.421V34.7776C241.329 34.8073 241.235 34.8294 241.139 34.844H240.88C240.764 34.8536 240.648 34.8319 240.543 34.7814C240.439 34.7308 240.35 34.6532 240.286 34.5566C240.21 34.4259 240.165 34.2799 240.153 34.1294C239.964 34.355 239.729 34.5383 239.463 34.6671C239.156 34.8244 238.815 34.9053 238.47 34.9029C238.274 34.9099 238.079 34.8783 237.896 34.81C237.713 34.7417 237.545 34.6381 237.402 34.5051C237.269 34.3795 237.163 34.2273 237.093 34.0585C237.023 33.8896 236.989 33.7079 236.994 33.5253C236.983 33.3387 237.014 33.1519 237.085 32.9786C237.155 32.8054 237.264 32.6498 237.402 32.5234C237.702 32.2729 238.072 32.121 238.462 32.0887L239.723 31.9193ZM238.069 34.0336C238.238 34.1653 238.448 34.2332 238.663 34.2251C238.94 34.2256 239.214 34.1626 239.463 34.041C239.666 33.9543 239.836 33.8084 239.953 33.6228C240.069 33.4372 240.126 33.2207 240.116 33.0022V32.376C240.001 32.4446 239.876 32.4944 239.745 32.5234C239.6 32.5669 239.451 32.5965 239.3 32.6118L238.826 32.6707C238.604 32.6897 238.388 32.7496 238.188 32.8475C238.073 32.9136 237.977 33.0094 237.912 33.1248C237.847 33.2402 237.814 33.3709 237.817 33.5032C237.815 33.605 237.837 33.7059 237.88 33.7979C237.924 33.89 237.989 33.9707 238.069 34.0336Z" fill="white"/>
<path d="M242.214 28.3608H243V34.7333H242.214V28.3608Z" fill="white"/>
<path d="M90.2773 41.6438C90.3066 41.3559 90.4147 41.0815 90.5898 40.8503C90.765 40.6192 91.0005 40.4401 91.2709 40.3325L91.1819 40.7156C90.9076 40.8629 90.7741 41.1282 90.6481 41.6438H90.9224L90.7222 42.6237H90.0771L90.2773 41.6438ZM91.5378 41.6438C91.5694 41.3515 91.6827 41.0738 91.8648 40.8421C92.0469 40.6104 92.2906 40.4339 92.5684 40.3325L92.4794 40.7156C92.2051 40.8629 92.0716 41.1282 91.9456 41.6438H92.2199L91.9827 42.6237H91.3376L91.5378 41.6438Z" fill="white"/>
<path d="M93.6659 40.3325H94.2739L93.2358 45.1947C93.0134 46.2114 93.3471 46.6681 94.2442 46.6681C95.1414 46.6681 95.6826 46.1745 95.9051 45.1947L96.9431 40.3325H97.5585L96.513 45.2021C96.462 45.7809 96.1837 46.3164 95.7382 46.6928C95.2928 47.0692 94.7161 47.2562 94.133 47.2133C92.88 47.2133 92.3165 46.6239 92.6501 45.2021L93.6659 40.3325Z" fill="white"/>
<path d="M98.1735 42.0635H98.6925L98.5368 42.8002C98.6993 42.5552 98.919 42.3528 99.1773 42.2105C99.4355 42.0681 99.7245 41.9898 100.02 41.9824C100.761 41.9824 101.228 42.3802 101.028 43.3306L100.22 47.1319H99.649L100.428 43.4927C100.576 42.8002 100.361 42.4539 99.7824 42.4539C99.4347 42.472 99.1045 42.6111 98.8497 42.8468C98.5948 43.0825 98.4316 43.3998 98.3885 43.7431L97.6471 47.1319H97.0762L98.1735 42.0635Z" fill="white"/>
<path d="M101.985 43.5666C102.032 43.1055 102.257 42.6802 102.612 42.3796C102.967 42.0789 103.425 41.9262 103.891 41.9533C104.943 41.9533 105.21 42.4911 105.032 43.2867L104.41 46.2335C104.343 46.5208 104.41 46.6534 104.61 46.6534H104.765L104.684 47.0733C104.596 47.1044 104.503 47.1218 104.41 47.1249C103.957 47.1249 103.668 47.0217 103.809 46.4987L103.846 46.3293C103.707 46.5972 103.493 46.8201 103.23 46.9714C102.967 47.1228 102.667 47.1965 102.363 47.1838C101.481 47.1838 101.199 46.6313 101.384 45.762C101.443 45.4271 101.6 45.1168 101.834 44.8693C102.069 44.6218 102.371 44.4481 102.704 44.3696L103.846 44.0676C104.269 43.9497 104.38 43.8539 104.499 43.272C104.617 42.69 104.328 42.3953 103.816 42.3953C103.134 42.3953 102.756 42.8078 102.593 43.5372L101.985 43.5666ZM104.261 44.2591C104.165 44.4286 103.824 44.5317 103.572 44.5906L103.075 44.7085C102.805 44.7471 102.554 44.8687 102.357 45.0563C102.16 45.244 102.028 45.4882 101.978 45.7546C101.859 46.344 102.074 46.7418 102.571 46.7418C102.948 46.7205 103.306 46.5652 103.578 46.3043C103.85 46.0434 104.019 45.6941 104.054 45.32L104.261 44.2591Z" fill="white"/>
<path d="M108.806 42.0635H109.318L109.169 42.8002C109.326 42.5492 109.544 42.3422 109.804 42.1991C110.063 42.0559 110.355 41.9813 110.652 41.9825C110.772 41.9677 110.894 41.9806 111.008 42.02C111.122 42.0595 111.225 42.1245 111.309 42.2099C111.394 42.2954 111.458 42.3991 111.495 42.513C111.533 42.6268 111.544 42.7478 111.527 42.8665C111.668 42.5975 111.881 42.3726 112.143 42.2165C112.405 42.0605 112.705 41.9795 113.01 41.9825C113.752 41.9825 114.1 42.3803 113.907 43.2791L113.084 47.132H112.513L113.329 43.3601C113.462 42.7634 113.255 42.4466 112.736 42.4466C112.404 42.4841 112.095 42.6318 111.858 42.8658C111.621 43.0998 111.47 43.4063 111.431 43.7358L110.689 47.1246H110.119L110.919 43.3601C111.053 42.7634 110.845 42.4466 110.334 42.4466C110 42.4825 109.689 42.6295 109.451 42.8637C109.213 43.0978 109.061 43.4052 109.021 43.7358L108.28 47.1246H107.701L108.806 42.0635Z" fill="white"/>
<path d="M114.879 43.5667C114.927 43.1049 115.153 42.6796 115.51 42.3791C115.866 42.0786 116.325 41.9261 116.791 41.9533C117.837 41.9533 118.104 42.4911 117.933 43.2867L117.303 46.2335C117.236 46.5208 117.303 46.6534 117.503 46.6534H117.666L117.577 47.0733C117.489 47.105 117.397 47.1224 117.303 47.1249C116.858 47.1249 116.562 47.0218 116.702 46.4987V46.3293C116.563 46.5973 116.349 46.8201 116.086 46.9715C115.824 47.1229 115.523 47.1966 115.22 47.1839C114.33 47.1839 114.056 46.6313 114.233 45.762C114.298 45.4329 114.457 45.1293 114.692 44.8876C114.926 44.6459 115.225 44.4764 115.553 44.3991L116.688 44.0971C117.118 43.9792 117.221 43.8834 117.348 43.3014C117.474 42.7195 117.177 42.4248 116.658 42.4248C115.983 42.4248 115.598 42.8373 115.442 43.5667H114.879ZM117.162 44.2592C117.066 44.4286 116.725 44.5317 116.48 44.5907L115.983 44.7085C115.713 44.746 115.461 44.8673 115.264 45.0551C115.067 45.243 114.935 45.4877 114.886 45.7547C114.76 46.344 114.982 46.7418 115.479 46.7418C115.856 46.719 116.213 46.5633 116.484 46.3027C116.756 46.042 116.926 45.6936 116.962 45.32L117.162 44.2592Z" fill="white"/>
<path d="M119.371 42.0635H119.89L119.735 42.8002C119.897 42.5552 120.117 42.3528 120.375 42.2105C120.633 42.0681 120.922 41.9898 121.218 41.9824C121.959 41.9824 122.426 42.3802 122.226 43.3306L121.418 47.1319H120.847L121.588 43.4927C121.737 42.8002 121.522 42.4539 120.943 42.4539C120.596 42.472 120.265 42.6111 120.011 42.8468C119.756 43.0825 119.592 43.3998 119.549 43.7431L118.808 47.1319H118.237L119.371 42.0635Z" fill="white"/>
<path d="M126.007 45.4303C125.915 45.9061 125.667 46.3383 125.302 46.6605C124.938 46.9826 124.477 47.1768 123.991 47.2132C122.923 47.2132 122.456 46.4765 122.864 44.5758C123.242 42.8372 124.05 41.9531 125.162 41.9531C126.274 41.9531 126.645 42.6898 126.282 44.399L126.23 44.6052H123.464L123.42 44.841C123.108 46.3144 123.524 46.7417 124.087 46.7417C124.651 46.7417 125.155 46.3144 125.429 45.4303H126.007ZM125.726 44.1338C125.978 42.8814 125.726 42.4246 124.984 42.4246C124.243 42.4246 123.828 42.8814 123.546 44.1338H125.726Z" fill="white"/>
<path d="M127.676 42.0633H128.247L128.076 42.8516C128.223 42.5864 128.438 42.3641 128.698 42.2064C128.958 42.0488 129.255 41.9614 129.559 41.9528C129.628 41.9415 129.698 41.9415 129.767 41.9528L129.641 42.52C129.552 42.5136 129.463 42.5136 129.374 42.52C128.984 42.5432 128.615 42.7047 128.335 42.9751C128.055 43.2454 127.881 43.6068 127.847 43.9934L127.172 47.1391H126.594L127.676 42.0633Z" fill="white"/>
<path d="M129.9 43.5666C129.947 43.1055 130.172 42.6802 130.527 42.3796C130.882 42.0789 131.34 41.9262 131.806 41.9533C132.851 41.9533 133.118 42.4911 132.947 43.2867L132.317 46.2335C132.25 46.5208 132.317 46.6534 132.517 46.6534H132.681L132.599 47.0733C132.508 47.1051 132.413 47.1226 132.317 47.1249C131.872 47.1249 131.576 47.0217 131.717 46.4987V46.3293C131.577 46.5972 131.363 46.8201 131.101 46.9714C130.838 47.1228 130.537 47.1965 130.234 47.1838C129.344 47.1838 129.07 46.6313 129.248 45.762C129.308 45.4265 129.466 45.116 129.702 44.8686C129.937 44.6211 130.241 44.4477 130.575 44.3696L131.717 44.0971C132.147 43.9792 132.25 43.8834 132.377 43.3014C132.503 42.7194 132.206 42.4247 131.694 42.4247C131.012 42.4247 130.634 42.8373 130.471 43.5666H129.9ZM132.176 44.2591C132.087 44.4286 131.739 44.5317 131.494 44.5906L130.997 44.7085C130.727 44.7471 130.476 44.8687 130.28 45.0563C130.083 45.244 129.95 45.4882 129.9 45.7546C129.774 46.344 129.996 46.7418 130.493 46.7418C130.87 46.719 131.227 46.5633 131.499 46.3026C131.77 46.042 131.94 45.6936 131.976 45.32L132.176 44.2591Z" fill="white"/>
<path d="M138.456 46.2629C138.328 46.5465 138.119 46.7871 137.856 46.9557C137.593 47.1243 137.287 47.2138 136.974 47.2133C135.854 47.2133 135.543 46.3219 135.921 44.5759C136.299 42.8299 136.981 41.9533 138.093 41.9533C138.218 41.9352 138.346 41.9442 138.467 41.9797C138.588 42.0152 138.7 42.0764 138.795 42.159C138.89 42.2416 138.966 42.3437 139.018 42.4582C139.069 42.5728 139.095 42.6971 139.094 42.8226L139.628 40.3325H140.199L138.753 47.1028H138.234L138.456 46.2629ZM137.189 46.7418C137.767 46.7418 138.36 46.4471 138.76 44.5759C139.161 42.7047 138.694 42.4247 138.108 42.4247C137.522 42.4247 136.937 42.7194 136.544 44.5759C136.151 46.4324 136.61 46.7418 137.189 46.7418Z" fill="white"/>
<path d="M143.313 45.4303C143.22 45.9061 142.972 46.3383 142.608 46.6605C142.243 46.9826 141.783 47.1768 141.296 47.2132C140.228 47.2132 139.761 46.4765 140.169 44.5758C140.547 42.8372 141.355 41.9531 142.468 41.9531C143.58 41.9531 143.951 42.6898 143.587 44.399L143.543 44.6052H140.762V44.8336C140.451 46.307 140.866 46.7343 141.43 46.7343C141.993 46.7343 142.497 46.307 142.772 45.423L143.313 45.4303ZM143.031 44.1338C143.283 42.8814 143.031 42.4246 142.29 42.4246C141.548 42.4246 141.133 42.8814 140.851 44.1338H143.031Z" fill="white"/>
<path d="M147.643 40.3325H148.214L147.687 42.771C147.822 42.518 148.026 42.3075 148.275 42.163C148.523 42.0185 148.808 41.9459 149.096 41.9533C149.837 41.9533 150.312 42.3511 150.112 43.3014L149.296 47.1028H148.725L149.511 43.4635C149.652 42.771 149.444 42.4247 148.859 42.4247C148.511 42.4428 148.181 42.5819 147.926 42.8177C147.671 43.0534 147.508 43.3707 147.465 43.714L146.723 47.1028H146.145L147.643 40.3325Z" fill="white"/>
<path d="M151.076 43.5666C151.123 43.1055 151.347 42.6802 151.703 42.3796C152.058 42.0789 152.516 41.9262 152.981 41.9533C154.034 41.9533 154.301 42.4911 154.131 43.2867L153.5 46.2335C153.434 46.5208 153.501 46.6534 153.701 46.6534H153.864L153.775 47.0733C153.687 47.105 153.594 47.1224 153.5 47.1249C153.048 47.1249 152.759 47.0217 152.9 46.4987V46.3293C152.76 46.5972 152.547 46.8201 152.284 46.9714C152.021 47.1228 151.72 47.1965 151.417 47.1838C150.535 47.1838 150.26 46.6313 150.438 45.762C150.498 45.4262 150.655 45.1151 150.891 44.8676C151.127 44.62 151.431 44.4468 151.766 44.3696L152.9 44.0676C153.33 43.9497 153.434 43.8539 153.56 43.272C153.686 42.69 153.382 42.3953 152.87 42.3953C152.196 42.3953 151.81 42.8078 151.647 43.5372L151.076 43.5666ZM153.36 44.2591C153.263 44.4286 152.922 44.5317 152.67 44.5906L152.173 44.7085C151.904 44.7474 151.654 44.8693 151.459 45.0571C151.263 45.2448 151.132 45.4888 151.083 45.7546C150.957 46.344 151.172 46.7418 151.669 46.7418C152.046 46.7175 152.401 46.5613 152.673 46.301C152.944 46.0406 153.114 45.693 153.152 45.32L153.36 44.2591Z" fill="white"/>
<path d="M157.89 45.4303C157.798 45.9027 157.554 46.3324 157.194 46.6541C156.834 46.9759 156.378 47.1722 155.896 47.2132C154.828 47.2132 154.361 46.4765 154.769 44.5758C155.139 42.8372 155.955 41.9531 157.067 41.9531C158.024 41.9531 158.454 42.5351 158.29 43.5665H157.72C157.823 42.7782 157.586 42.4246 156.978 42.4246C156.37 42.4246 155.762 42.8077 155.377 44.5905C154.991 46.3733 155.466 46.7417 155.999 46.7417C156.533 46.7417 157.045 46.3144 157.327 45.4303H157.89Z" fill="white"/>
<path d="M161.849 45.4303C161.756 45.9061 161.508 46.3383 161.144 46.6605C160.78 46.9826 160.319 47.1768 159.832 47.2132C158.765 47.2132 158.297 46.4765 158.713 44.5758C159.083 42.8372 159.892 41.9531 161.011 41.9531C162.131 41.9531 162.494 42.6898 162.123 44.399L162.079 44.6052H159.298V44.8336C158.987 46.307 159.402 46.7343 159.966 46.7343C160.529 46.7343 161.033 46.307 161.315 45.423L161.849 45.4303ZM161.567 44.1338C161.819 42.8814 161.567 42.4246 160.826 42.4246C160.084 42.4246 159.669 42.8814 159.387 44.1338H161.567Z" fill="white"/>
<path d="M163.517 42.0634H164.088L163.918 42.8516C164.064 42.5856 164.277 42.3624 164.538 42.2046C164.798 42.0468 165.096 41.96 165.401 41.9529C165.467 41.9421 165.534 41.9421 165.601 41.9529L165.475 42.5201C165.386 42.5133 165.297 42.5133 165.208 42.5201C164.818 42.5433 164.449 42.7047 164.169 42.9751C163.889 43.2455 163.715 43.6069 163.68 43.9935L163.006 47.1024H162.435L163.517 42.0634Z" fill="white"/>
<path d="M168.811 40.3325H172.192L172.074 40.8482H169.308L168.782 43.3088H171.369L171.265 43.8171H168.678L168.077 46.5871H170.932L170.828 47.1028H167.365L168.811 40.3325Z" fill="white"/>
<path d="M172.697 42.0635H173.268L172.526 45.6144C172.356 46.4247 172.563 46.7415 173.164 46.7415C173.51 46.7217 173.839 46.5819 174.092 46.3463C174.345 46.1108 174.507 45.7944 174.55 45.4523L175.292 42.0635H175.863L174.78 47.1025H174.269L174.424 46.3658C174.261 46.6099 174.041 46.8116 173.783 46.9539C173.525 47.0961 173.236 47.1749 172.941 47.1835C172.163 47.1835 171.725 46.7857 171.94 45.8354L172.697 42.0635Z" fill="white"/>
<path d="M176.93 42.0634H177.501L177.331 42.8516C177.476 42.5856 177.69 42.3624 177.951 42.2046C178.211 42.0468 178.509 41.96 178.813 41.9529C178.88 41.9421 178.947 41.9421 179.014 41.9529L178.888 42.5201C178.799 42.5133 178.709 42.5133 178.621 42.5201C178.231 42.5433 177.862 42.7047 177.582 42.9751C177.301 43.2455 177.128 43.6069 177.093 43.9935L176.419 47.1392H175.848L176.93 42.0634Z" fill="white"/>
<path d="M181.082 41.9531C182.194 41.9531 182.646 42.8372 182.276 44.5758C181.905 46.3144 181.067 47.2132 179.955 47.2132C178.843 47.2132 178.398 46.3291 178.783 44.5758C179.169 42.8224 179.962 41.9531 181.082 41.9531ZM180.059 46.7417C180.696 46.7417 181.312 46.1891 181.66 44.5758C182.009 42.9624 181.66 42.4246 180.985 42.4246C180.311 42.4246 179.725 42.9771 179.391 44.5758C179.058 46.1744 179.421 46.7417 180.059 46.7417Z" fill="white"/>
<path d="M183.588 42.0635H184.107L183.951 42.8002C184.093 42.5497 184.298 42.3408 184.547 42.1946C184.795 42.0484 185.079 41.9701 185.368 41.9678C186.495 41.9678 186.791 42.8592 186.421 44.6052C186.05 46.3511 185.353 47.2278 184.196 47.2278C184.072 47.2461 183.945 47.2372 183.825 47.2016C183.704 47.166 183.593 47.1046 183.499 47.0217C183.405 46.9389 183.33 46.8366 183.28 46.722C183.231 46.6074 183.207 46.4833 183.21 46.3585L182.691 48.7822H182.12L183.588 42.0635ZM185.212 42.4245C185.039 42.4334 184.87 42.478 184.716 42.5554C184.561 42.6327 184.425 42.7412 184.315 42.8739C183.932 43.3736 183.691 43.9665 183.618 44.5904C183.225 46.4469 183.685 46.7416 184.27 46.7416C184.856 46.7416 185.442 46.4469 185.835 44.5904C186.228 42.7339 185.768 42.4245 185.249 42.4245H185.212Z" fill="white"/>
<path d="M187.473 43.5667C187.522 43.1049 187.748 42.6796 188.104 42.3791C188.461 42.0786 188.92 41.9261 189.386 41.9533C190.432 41.9533 190.699 42.4911 190.528 43.2867L189.898 46.2335C189.831 46.5208 189.898 46.6534 190.098 46.6534H190.261L190.172 47.0733C190.084 47.105 189.991 47.1224 189.898 47.1249C189.453 47.1249 189.156 47.0218 189.297 46.4987V46.3293C189.157 46.5967 188.943 46.819 188.681 46.9703C188.418 47.1216 188.118 47.1957 187.814 47.1838C186.925 47.1838 186.65 46.6313 186.828 45.762C186.889 45.4266 187.046 45.116 187.282 44.8686C187.518 44.6212 187.822 44.4477 188.155 44.3697L189.29 44.0676C189.72 43.9497 189.824 43.854 189.95 43.272C190.076 42.69 189.779 42.3953 189.26 42.3953C188.585 42.3953 188.2 42.8079 188.044 43.5372L187.473 43.5667ZM189.757 44.2592C189.661 44.4286 189.319 44.5317 189.075 44.5907L188.578 44.7085C188.306 44.7446 188.053 44.8652 187.854 45.0532C187.656 45.2411 187.523 45.4867 187.473 45.7547C187.347 46.344 187.57 46.7418 188.066 46.7418C188.443 46.7176 188.799 46.5614 189.07 46.301C189.342 46.0407 189.511 45.693 189.549 45.32L189.757 44.2592Z" fill="white"/>
<path d="M192.523 40.3325H193.168L192.96 41.2976C192.936 41.588 192.832 41.8661 192.657 42.1005C192.483 42.3348 192.246 42.516 191.974 42.6237L192.055 42.2406C192.337 42.0932 192.471 41.828 192.589 41.3123H192.308L192.523 40.3325ZM193.776 40.3325H194.428L194.22 41.2976C194.197 41.588 194.092 41.8661 193.918 42.1005C193.744 42.3348 193.507 42.516 193.234 42.6237L193.308 42.2406C193.598 42.0932 193.731 41.828 193.842 41.3123H193.568L193.776 40.3325Z" fill="white"/>
</svg>