<svg width="255" height="55" viewBox="0 0 255 55" fill="none" xmlns="http://www.w3.org/2000/svg">
<path d="M164 0H0V55H122.279V28.1355H164V0ZM1.27014 1.26779H79.2851V26.8677H1.27014V1.26779ZM121.009 53.7322H1.27014V28.1355H121.009V53.7322ZM162.73 26.8677H80.5552V1.26779H162.73V26.8677Z" fill="white"/>
<path d="M12.5043 13.4955C9.71632 12.8996 9.06537 12.2277 9.06537 11.0201C9.06537 9.86327 10.1164 8.95997 11.7612 8.95997C13.1066 8.96142 14.406 9.44892 15.4192 10.3324L16.2512 9.22938C15.0106 8.18451 13.4283 7.63172 11.8057 7.67633C9.39878 7.67633 7.63964 9.12162 7.63964 11.1628C7.63964 13.2578 8.97964 14.196 11.8946 14.8299C14.5555 15.3908 15.1906 16.0596 15.1906 17.2513C15.1906 18.5191 14.0665 19.4193 12.3646 19.4193C10.6086 19.4193 9.34163 18.8234 8.02069 17.6285L7.13477 18.6776C8.5314 19.9975 10.3874 20.7237 12.3106 20.7029C14.8286 20.7029 16.6386 19.2925 16.6386 17.1055C16.6322 15.1373 15.3271 14.1072 12.5043 13.4955Z" fill="white"/>
<path d="M25.9712 14.7601L21.3542 7.85693H19.9062V20.5063H21.3002V10.2784L25.9172 17.0357H25.9902L30.604 10.2594V20.5063H32.0361V7.85693H30.5881L25.9712 14.7601Z" fill="white"/>
<path d="M45.7154 19.0615H35.8687V20.5068H45.7154V19.0615Z" fill="white"/>
<path d="M40.1236 7.76855L35.8813 17.1629H45.7249L41.4699 7.76855H40.1236ZM37.8786 15.8793L40.7745 9.42936L43.6546 15.8793H37.8786Z" fill="white"/>
<path d="M59.5819 11.635C59.5819 9.3561 57.791 7.85693 55.0031 7.85693H49.5542V20.5063H50.9831V15.5905H54.6157L58.2769 20.5063H60.0328L56.143 15.3369C58.134 14.9756 59.5819 13.749 59.5819 11.635ZM50.9831 14.3068V9.19128H54.8919C56.94 9.19128 58.134 10.1421 58.134 11.7047C58.134 13.3465 56.7749 14.3227 54.8761 14.3227L50.9831 14.3068Z" fill="white"/>
<path d="M62.6401 9.17544H66.8919V20.5063H68.3399V9.17544H72.5948V7.85693H62.6401V9.17544Z" fill="white"/>
<path d="M88.7731 7.85693H87.3442V20.5032H88.7731V7.85693Z" fill="white"/>
<path d="M97.2449 19.4034C95.489 19.4034 94.222 18.8075 92.9011 17.6126L92.0151 18.6617C93.4112 19.9825 95.2676 20.7088 97.1909 20.687C99.7058 20.687 101.519 19.2766 101.519 17.0897C101.519 15.1373 100.214 14.1072 97.391 13.4955C94.5681 12.8838 93.9521 12.2277 93.9521 11.0201C93.9521 9.86324 95 8.95994 96.648 8.95994C97.9932 8.96197 99.2924 9.44938 100.306 10.3323L101.138 9.22935C99.8972 8.18474 98.315 7.63199 96.6924 7.6763C94.2855 7.6763 92.5295 9.12158 92.5295 11.1627C92.5295 13.2578 93.8695 14.1959 96.7845 14.8298C99.4454 15.3908 100.077 16.0596 100.077 17.2513C100.068 18.5191 98.9469 19.4034 97.2449 19.4034Z" fill="white"/>
<path d="M113.534 19.1847H106.403V7.85693H104.974V20.5063H113.534V19.1847Z" fill="white"/>
<path d="M126.82 19.0615H116.973V20.5068H126.82V19.0615Z" fill="white"/>
<path d="M122.568 7.76855H121.231L116.976 17.1629H126.82L122.568 7.76855ZM121.882 9.42936L124.759 15.8793H118.983L121.882 9.42936Z" fill="white"/>
<path d="M131.869 10.1326L140.051 20.5063H141.191V7.85693H139.797V17.9929L131.815 7.85693H130.475V20.5063H131.869V10.1326Z" fill="white"/>
<path d="M156.087 14.1642C156.087 10.5859 153.334 7.85693 149.352 7.85693H144.955V20.5063H149.352C153.334 20.5063 156.087 17.7489 156.087 14.1642ZM146.383 9.19128H149.352C152.556 9.19128 154.601 11.4099 154.601 14.2149C154.601 17.0199 152.556 19.2005 149.352 19.2005H146.383V9.19128Z" fill="white"/>
<path d="M14.3872 41.6246L9.77022 34.7246H8.32227V47.3708H9.71624V37.1461L14.3332 43.9034H14.4062L19.02 37.1271V47.3708H20.4521V34.7246H19.0041L14.3872 41.6246Z" fill="white"/>
<path d="M33.7725 45.9258H23.9258V47.3711H33.7725V45.9258Z" fill="white"/>
<path d="M28.1776 34.6328L23.9258 44.0303H33.7693L29.5303 34.6328H28.1776ZM25.9326 42.7467L28.8317 36.2968L31.7085 42.7467H25.9326Z" fill="white"/>
<path d="M38.8561 34.7246H37.4272V47.3708H45.988V46.0523H38.8561V34.7246Z" fill="white"/>
<path d="M50.6022 34.7246H49.1733V47.3708H57.7341V46.0523H50.6022V34.7246Z" fill="white"/>
<path d="M66.4757 34.5059C62.6209 34.5059 59.998 37.5612 59.998 41.0667C59.998 44.5721 62.586 47.5895 66.4408 47.5895C70.2957 47.5895 72.9217 44.5341 72.9217 41.0286C72.9217 37.5232 70.3338 34.5059 66.4757 34.5059ZM66.4757 46.2678C63.5798 46.2678 61.4809 43.9192 61.4809 41.0286C61.4809 38.1381 63.5449 35.8149 66.4408 35.8149C69.3367 35.8149 71.4451 38.1761 71.4451 41.0667C71.4451 43.9572 69.3748 46.2741 66.4757 46.2741V46.2678Z" fill="white"/>
<path d="M76.4844 47.3708H77.9165V42.4708H81.5363L85.2102 47.3835H86.9662L83.0732 42.2173C85.0641 41.856 86.5121 40.6325 86.5121 38.5122C86.5121 36.2365 84.7212 34.7373 81.9333 34.7373H76.4844V47.3708ZM77.9165 36.0431H81.8253C83.8702 36.0431 85.0642 36.994 85.0642 38.5534C85.0642 40.1983 83.7083 41.1745 81.8063 41.1745H77.9165V36.0431Z" fill="white"/>
<path d="M96.2667 47.59C98.5688 47.59 100.017 46.7025 101.347 45.3713L100.395 44.4522C99.1817 45.609 98.0417 46.2746 96.3048 46.2746C93.5169 46.2746 91.3989 43.9831 91.3989 41.0355C91.3989 38.0878 93.4978 35.8153 96.3048 35.8153C98.0258 35.8153 99.2198 36.538 100.287 37.549L101.265 36.4999C99.9946 35.3082 98.6228 34.4937 96.3239 34.4937C92.5928 34.4937 89.916 37.4413 89.916 41.0545C89.916 44.6677 92.6119 47.59 96.2667 47.59Z" fill="white"/>
<path d="M114.658 45.9258H104.812V47.3711H114.658V45.9258Z" fill="white"/>
<path d="M110.403 34.6328H109.063L104.812 44.0303H114.655L110.403 34.6328ZM109.717 36.2968L112.594 42.7467H106.818L109.717 36.2968Z" fill="white"/>
</svg>